<?xml version="1.0" standalone="no"?>
<svg version="1.1" id="Layer_1" xmlns="http://www.w3.org/2000/svg" xmlns:xlink="http://www.w3.org/1999/xlink" x="0px" y="0px" width="595.28px" height="595.28px" viewBox="0 0 595.28 595.28" enable-background="new 0 0 595.28 595.28" xml:space="preserve">
<path id="color_x5F_2" fill="#FBC02D" d="M351.56,296.924c-0.895-1-1.804-1.989-2.711-2.979
	c13.866-6.596,31.483-22.733,28.123-39.269c0.756,0.071,2.305,0.225,4.506,0.476c8.774,1.565,17.584,2.964,26.312,4.789
	c16.414,3.433,32.609,8.579,44.406,21.049c9.504,10.045,14.334,23.524,20.246,35.776c6.328,13.114,12.957,26.083,19.22,39.229
	c-1.229,0.314-2.457,0.629-3.684,0.952c-0.473-0.029-1.051,0.13-1.473,0.397c-10.899,2.912-21.717,6.235-32.238,10.29
	c-2.732-1.483-5.462-2.964-8.112-4.521l-0.608-0.467c-4.976-4.646-10.082-9.146-15.209-13.626
	c-7.398-10.838-10.399-24.557-15.344-36.885c-0.48-1.197-3.353-0.355-2.898,0.777c4.001,9.975,6.698,20.634,11.412,30.13
	c-5.274-4.633-10.509-9.312-15.566-14.19c-7.663-7.393-13.787-16.357-21.689-23.403C376.557,296.806,363.822,292.472,351.56,296.924
	z M240.108,343.833c-1.34,3.898-1.999,6.461-1.999,6.461l-7.016,33.326c3.957-12.06,5.646-24.644,8.391-37.025
	C239.688,345.676,239.896,344.755,240.108,343.833z M463.683,444.401c2.202,0.461,4.521,0.877,6.883,1.149
	C468.49,445.171,466.059,444.752,463.683,444.401z M312.277,478.337l182.165,3.625l-2.739-8.223
	c-0.809,0.323-1.908,0.422-2.043-0.057c-2.741-9.699-4.916-18.269-10.795-26.389c-6.357,0.754-13.149-0.13-19.34-1.746
	c-39.984-10.437-49.36-54.746-73.821-82.63c-2.571-1.108-6.79-2.903-10.573-4.405c-5.746-1.625-11.716-3.143-14.775-7.802
	c-0.234-0.156-0.541-0.333-0.89-0.516c-1.716-0.095-3.339-0.53-4.718-1.386c-0.209-0.021-0.379-0.031-0.518-0.031l-0.098-0.392
	c-1.16-0.882-2.104-2.109-2.718-3.744c-5.414-1.308-10.262-5.675-12.255-12.104c-0.463-0.414-0.907-0.894-1.328-1.461
	c-4.137-5.573-0.451-15.202,3.742-19.757c0.282-0.307,0.756-0.466,1.23-0.499l0.305-0.528l-1.584-2.852
	c-1.191-1.784-2.298-3.642-3.393-5.508c-12.048,6.869-37.46,5.631-36.132-11.982c-1.649-0.09-3.28-0.253-4.881-0.505
	c-1.547-0.243-3.068-0.571-4.566-0.964l-0.72-0.094c-12.066,9.566-25.778,16.838-36.405,28.289
	c-8.1,8.728-11.036,19.827-13.397,31.272c-2.704,13.106-4.609,26.411-9.306,39.008c-0.042,0.114-0.121,0.218-0.218,0.315
	c0.11,0.052,0.188,0.126,0.214,0.23c2.315,9.313,13.222,15.281,21.322,18.779c8.104,3.5,17.882,6.918,26.957,6.035
	c-5.606-17.451-9.087-35.455-8.877-54.031c0.01-0.871,2.903-1.289,2.897-0.777c-0.211,18.719,3.322,36.855,9.004,54.432
	c0.481,0.031,0.466,0.302,0.193,0.594c7.359,22.559,18.234,44.195,29.258,64.951C313.604,477.729,312.982,478.11,312.277,478.337z
	 M307.163,471.792l2.946,6.502l0.5,0.01c-0.01-0.014-0.025-0.023-0.033-0.039C309.436,476.116,308.297,473.958,307.163,471.792z
	 M281.959,416.169l1.356,2.992c-0.393-1.107-0.779-2.216-1.155-3.328C282.094,415.945,282.025,416.057,281.959,416.169z
	 M280.144,414.111c0.112-0.175,0.228-0.346,0.341-0.519c-0.714,0.076-1.433,0.128-2.156,0.158
	C279.071,413.901,279.685,414.022,280.144,414.111z"></path>
<path id="color_x5F_1" d="M313.126,282.94c18.618-3.186,33.665-14.25,37.636-33.301c4.672-22.41-8.645-42.902-29.671-50.587
	c-5.777-2.111-11.837-1.989-17.894-1.585c-5.814,0.389-12.153,1.113-17.502,3.57c-0.447,0.205-0.684,0.455-0.766,0.703
	c-0.397-0.2-0.952-0.234-1.49,0.049c-18.855,9.927-26.521,33.242-19.365,52.858C271.594,275.263,291.746,286.599,313.126,282.94z
	 M339.769,215.292c-0.334-0.338-0.665-0.671-0.992-0.998c0,0-0.153-0.253-0.432-0.662
	C338.834,214.18,339.31,214.733,339.769,215.292z M302.738,199.245c-1.651,0.183-2.629,0.383-2.629,0.383l-0.278-0.139
	C300.798,199.386,301.768,199.301,302.738,199.245z M297.778,281.113c-11.078-1.802-20.302-9.332-26.365-18.46
	c-12.787-19.25-7.92-47.994,13.306-59.168c0.439-0.231,0.668-0.502,0.743-0.765c0.403,0.209,0.966,0.264,1.512,0.013
	c3.394-1.56,7.41-2.556,11.566-3.095c0.348,0.806,0.889,2.039,1.561,3.501c3.085,10.285,10.053,19.995,18.245,26.803
	c0.255,0.211,1.174,0.104,1.895-0.151c0.333,0.314,0.535,0.503,0.535,0.503s-0.032-0.262-0.064-0.71
	c0.274-0.151,0.46-0.327,0.453-0.511c-0.114-3.137-0.14-6.791,1.34-9.684c0.638-0.947,1.482-1.699,2.604-2.096
	c0.915-0.323,1.819-0.391,2.697-0.289c1.678,0.676,3.316,2.026,4.25,2.932c5.583,5.419,3.951,12.91-2.674,16.439
	c-0.074,0.04-0.419,0.242-0.35,0.396c3.391,7.488,10.811,10.518,17.771,13.936c0.207,0.102,0.532,0.079,0.887-0.006
	c-2.325,9.535-7.924,18.229-16.335,23.614C321.852,280.401,308.828,282.911,297.778,281.113z M289.035,226.536
	c0.991-4.367,4.848-6.293,8.921-7.146c0.488-0.103,1.495-0.217,1.675,0.454c0.17,0.635-0.735,1.129-1.223,1.231
	c-3.084,0.646-5.706,1.837-6.459,5.159C291.696,227.351,288.752,227.779,289.035,226.536z M306.429,242.663
	c0.86,1.26-1.898,2.387-2.65,1.285c-1.773-2.598-3.925-4.883-5.384-7.691c-0.711-1.369,2.046-2.449,2.65-1.285
	C302.505,237.782,304.655,240.067,306.429,242.663z M301.349,265.892c-1.804,0.973-3.261,1.719-5.308,1.929
	c-0.312,0.032-0.666-0.012-0.845-0.284c-3.295-4.994-6.261-10.189-9.229-15.381c-0.318-0.558,2.429-1.597,2.897-0.777
	c2.883,5.044,5.77,10.087,8.952,14.948c0.639-0.24,1.278-0.708,1.813-0.997C300.404,264.912,303.055,264.971,301.349,265.892z
	 M328.856,255.991c0,0.77,0,1.539,0,2.309c0,0.87-2.898,1.305-2.898,0.777c0-0.77,0-1.539,0-2.309
	C325.958,255.898,328.856,255.464,328.856,255.991z M489.25,358.308c1.496-0.392,2.992-0.778,4.489-1.156
	c0.661-0.167,1.014-0.494,1.103-0.814c0.09-0.139,0.119-0.285,0.051-0.43c-6.575-13.835-13.551-27.477-20.208-41.273
	c-6.017-12.47-11.012-25.488-20.677-35.705c-10.783-11.398-26.018-16.264-40.881-19.765c-18.361-4.325-37.226-6.007-55.401-11.202
	c1.657-12.806-1.678-26.354-9.321-36.596c-2.262-3.03-4.982-5.891-8.02-8.457c-0.162-14.037-2.832-35.631-20.292-34.543
	c-2.577-10.477-14.72-14.798-24.406-16.09c-7.9-1.054-17.954-0.292-25.066,4.332c-7.906,2.527-17.187,5.229-21.177,5.02
	c-6.333-0.334-12,7.334-7,7.666c1.465,0.098,2.492,0.166,3.225,0.215c-6.884,2.881-13.542,7.016-19.662,11.205
	c-4.788,3.277-11.144,8.059-8.972,14.785c1.592,4.93,9.588,1.995,12.485,0.652c0.101-0.047,0.186-0.093,0.266-0.139
	c-2.902,3.318-7.923,9.107-5.546,13.084c1.758,2.939,7.517,1.392,9.994,0.758c1.73-0.443,3.436-1.042,5.118-1.737
	c0.414-0.127,0.739-0.237,0.976-0.321c3.383,6.631,9.438,13.213,16.668,15.285c0.156,0.045,0.427,0.016,0.733-0.056
	c-2.921,8.378-3.666,17.54-1.808,26.337c3.744,17.725,16.796,32.676,33.765,38.282c-5.14,3.983-10.82,7.392-16.07,11.194
	c-7.848,5.686-15.602,11.736-22.084,18.977c-6.525,7.287-9.266,16.653-11.422,26.018c-0.212,0.922-0.42,1.843-0.624,2.762
	c-2.745,12.382-4.434,24.966-8.391,37.025c-0.403,1.229-0.821,2.453-1.275,3.669c-0.096,0.257,0.008,0.427,0.223,0.526
	c-0.167,0.146-0.259,0.305-0.219,0.467c0.916,3.682,3.085,6.793,5.877,9.444c-0.185,0.128-0.32,0.274-0.367,0.438
	c-0.822,2.875-1.804,5.432-3.066,7.991c-3.292-5.372-6.53-10.778-9.819-16.146c-4.701-7.672-9.563-15.243-14.847-22.529
	c-4.658-6.424-9.487-12.876-16.327-17.092c-5.879-3.625-12.919-4.967-19.72-5.309c-5.161-0.26-13.329-0.848-17.746,2.328
	c-3.057,2.199-6.023,6.796-10.385,5.322c-3.066-1.037-4.564-4.77-5.784-7.428c-1.962-4.275-4.162-7.388-8.929-8.463
	c-0.601-0.136-1.68,0.249-1.886,0.893c-0.22,0.686-0.395,1.414-0.532,2.169c-0.562-0.044-2.064,0.182-2.46,0.454
	c-4.053,2.787-5.554,6.107-5.469,9.549c-0.729,0.076-1.506,0.498-1.623,1.17c-1.043,6.002-1.067,12.479,3.689,16.909
	c3.995,3.72,10.373,4.148,15.513,4.313c7.054,0.227,14.103-0.651,21.151-0.789c5.369-0.105,12.534-0.065,16.086,4.585
	c-0.687,0.214-1.25,0.743-1.043,1.421c6.874,22.555,11.288,45.85,20.475,67.663c6.143,14.585,17.359,36.259,35.299,38.113
	c13.616,1.408,23.852-11.913,30.395-21.937c8.596-13.166,14.505-27.776,21.729-41.683c0.614-1.182,1.25-2.353,1.921-3.503
	c0.066-0.112,0.134-0.224,0.201-0.336c0.376,1.112,0.763,2.221,1.155,3.328c6.433,18.139,14.975,35.675,23.848,52.631
	c1.134,2.166,2.272,4.324,3.413,6.473c0.008,0.016,0.023,0.025,0.033,0.039c0.236,0.326,0.988,0.253,1.668,0.033
	c0.705-0.227,1.326-0.607,1.197-0.85c-11.023-20.756-21.898-42.393-29.258-64.951c0.272-0.292,0.288-0.563-0.193-0.594
	c-5.682-17.576-9.215-35.713-9.004-54.432c0.006-0.512-2.888-0.094-2.897,0.777c-0.209,18.576,3.271,36.58,8.877,54.031
	c-9.075,0.883-18.853-2.535-26.957-6.035c-8.1-3.498-19.006-9.466-21.322-18.779c-0.026-0.104-0.104-0.179-0.214-0.23
	c0.098-0.098,0.176-0.201,0.218-0.315c4.697-12.597,6.602-25.901,9.306-39.008c2.361-11.445,5.298-22.545,13.397-31.272
	c10.627-11.451,24.339-18.723,36.405-28.289c0.03-0.024,0.06-0.049,0.089-0.073c0.209,0.058,0.42,0.112,0.63,0.167
	c1.498,0.393,3.019,0.721,4.566,0.964c1.601,0.252,3.232,0.415,4.881,0.505c-1.328,17.613,24.084,18.852,36.132,11.982
	c1.095,1.866,2.201,3.724,3.393,5.508c1.57,2.354,3.308,4.561,5.363,6.484c-1.265-0.313-2.436-0.71-3.398-1.139
	c0.172-0.211,0.344-0.417,0.512-0.6c0.848-0.921-0.178-1.437-1.197-1.366c-0.475,0.033-0.948,0.192-1.23,0.499
	c-4.193,4.555-7.879,14.184-3.742,19.757c0.421,0.567,0.865,1.047,1.328,1.461c1.993,6.429,6.841,10.796,12.255,12.104
	c0.614,1.635,1.558,2.862,2.718,3.744c0.199,0.151,0.404,0.292,0.615,0.423c1.379,0.855,3.002,1.291,4.718,1.386
	c0.191,0.011,0.383,0.019,0.576,0.021c0.1,0.171,0.207,0.332,0.313,0.495c3.06,4.659,9.029,6.177,14.775,7.802
	c3.439,0.973,6.792,1.991,9.371,3.767c0.175,0.12,0.445,0.149,0.749,0.122c0.152,0.172,0.303,0.345,0.453,0.517
	c24.461,27.884,33.837,72.193,73.821,82.63c6.19,1.616,12.982,2.5,19.34,1.746c5.879,8.12,8.054,16.689,10.795,26.389
	c0.135,0.479,1.234,0.38,2.043,0.057c0.535-0.213,0.943-0.523,0.855-0.834c-2.709-9.582-4.95-18.094-10.6-26.116
	c6.273-1.337,11.925-4.517,15.866-10.499c7.808-11.852,6.085-28.765,3.703-41.957C499.294,381.956,495.39,369.356,489.25,358.308z
	 M280.485,413.593c-0.114,0.173-0.229,0.344-0.341,0.519c-6.893,10.663-11.368,23.052-17.289,34.236
	c-6.295,11.891-15.305,29.165-29.705,32.446c-8.077,1.841-15.546-3.795-20.806-9.227c-7.778-8.029-13.088-18.277-17.387-28.483
	c-8.892-21.112-13.106-43.776-19.707-65.628c0.872-0.195,1.682-0.93,1.199-1.75c-5.585-9.494-22.104-6.346-31.018-5.853
	c-6.362,0.353-13.259,0.841-19.322-1.491c-6.095-2.346-7.289-8.283-6.854-14.043c1.804,4.94,6.02,9.768,9.894,13.285
	c0.532,0.483,3.083-0.639,2.74-0.949c-7.323-6.65-16.638-18.662-5.645-26.444c-1.737,10.55,4.363,26.675,16.456,25.686
	c1.636-0.134,2.226-2.308,0.25-2.146c-10.519,0.86-15.479-15.338-13.72-24.205c6.731,3.614,7.913,19.521,18.189,15.337
	c2.226-0.906,3.916-2.397,5.682-3.998c3.217-2.914,6.42-3.171,10.603-3.518c8.726-0.723,17.62,0.41,25.341,4.709
	c7.19,4.004,12.152,11.513,16.877,18.029c4.957,6.836,9.451,14.003,13.875,21.189c3.656,5.938,7.238,11.926,10.896,17.865
	c-0.051,0.209,0.062,0.344,0.262,0.422c5.463,8.857,11.103,17.598,17.445,25.868c0.813,1.06,3.568-0.087,2.65-1.283
	c-6.296-8.212-11.914-16.886-17.345-25.68c1.667-2.979,2.96-5.843,3.993-9.029c4.289,3.448,9.527,6.036,13.988,8.047
	c7.955,3.586,17.585,6.636,26.641,6.247C279.052,413.721,279.771,413.669,280.485,413.593z M381.478,255.152
	c8.774,1.565,17.584,2.964,26.312,4.789c16.414,3.433,32.609,8.579,44.406,21.049c9.504,10.045,14.334,23.524,20.246,35.776
	c6.328,13.114,12.957,26.083,19.22,39.229c-1.229,0.314-2.457,0.629-3.684,0.952c-0.473-0.029-1.051,0.13-1.473,0.397
	c-10.899,2.912-21.717,6.235-32.238,10.29c-2.732-1.483-5.462-2.964-8.112-4.521c-0.094-0.056-0.188-0.11-0.281-0.165
	c-0.108-0.102-0.219-0.201-0.327-0.302c-4.976-4.646-10.082-9.146-15.209-13.626c-7.398-10.838-10.399-24.557-15.344-36.885
	c-0.48-1.197-3.353-0.355-2.898,0.777c4.001,9.975,6.698,20.634,11.412,30.13c-5.274-4.633-10.509-9.312-15.566-14.19
	c-7.663-7.393-13.787-16.357-21.689-23.403c-9.694-8.644-22.429-12.978-34.691-8.525c-0.895-1-1.804-1.989-2.711-2.979
	c13.866-6.596,31.483-22.733,28.123-39.269c-0.024-0.121-0.057-0.243-0.083-0.365C378.417,254.599,379.946,254.879,381.478,255.152z
	 M373.639,253.688c0.001,0.002,0,0.004,0.001,0.006c4.763,16.148-12.336,32.463-25.941,38.992c-3.638-4-7.126-8.105-9.376-13.1
	c4.294-2.963,8.086-6.491,11.081-10.522c4.215-5.673,6.851-12.263,8.024-19.128C362.785,251.414,368.197,252.62,373.639,253.688z
	 M282.013,196.521c-0.345-0.358-1.103-0.51-1.805-0.143c-9.842,5.15-17.224,13.803-21.403,23.828
	c-4.293-5.729-5.154-12.166-4.524-19.291c0.029-0.326-0.079-0.564-0.263-0.732c7.314-4.402,14.446-9.142,22.051-13.012
	c-3.68,3.433-7.976,8.123-3.958,8.123c2.246,0,5.75-1.554,9.337-3.556c4.609-1.765,8.34-4.847,12.632-7.212
	c1.067,2.08,2.459,3.954,3.423,6.102c0.08,0.178,0.292,0.262,0.563,0.282l0.394,0.95c-5.259,0.568-10.831,1.412-15.666,3.656
	C282.117,195.83,281.921,196.206,282.013,196.521z M278.016,184.921l2.094-1.293c0,0-0.345,0.281-0.904,0.756
	C278.809,184.562,278.41,184.737,278.016,184.921z M231.911,178.722c-2.354,1.451-4.577,2.874-6.333,4.095
	C227.549,181.296,229.741,179.967,231.911,178.722z M230.6,209.605c0.641-0.032,1.263-0.077,1.856-0.136
	C231.82,209.579,231.201,209.624,230.6,209.605z M275.154,276.63c-17.997-15.711-22.216-41.901-10.507-62.497
	c3.915-6.886,9.772-12.606,16.783-16.274c0.66-0.346,0.848-0.742,0.752-1.063c0.349,0.359,1.12,0.532,1.833,0.202
	c8.892-4.129,21.145-4.557,30.752-3.643c1.794,0.171,3.579,0.535,5.347,1.031c0.226,0.078,0.447,0.158,0.663,0.242
	c2.75,1.076,5.928,2.495,8.874,3.873c2.772,1.617,5.406,3.521,7.84,5.582c0.001,0.057,0.002,0.118,0.002,0.175
	c0.002,0.493,0.459,0.692,1.008,0.694c2.355,2.085,4.507,4.304,6.376,6.541c14.572,17.438,13.653,45.865-2.322,62.135
	c-1.854,1.888-3.896,3.529-6.067,4.978c-0.604,0.128-1.172,0.45-1.311,0.843c-7.219,4.441-15.76,6.79-24.045,8.042
	c-2.105,0.317-4.201,0.461-6.282,0.47c-0.385-0.38-1.283-0.348-1.95-0.034c-3.022-0.124-6-0.557-8.898-1.296
	c1.158-1.005-1.316-1.158-2.234-0.631C285.723,284.113,280.076,280.926,275.154,276.63z M304.896,290.027
	c6.839-0.009,13.905-1.329,20.539-3.788c5.256,3.402,8.534,8.614,11.684,13.967C326.757,306.737,304.188,305.328,304.896,290.027z
	 M350.299,313.541c-4.206-3.659-7.043-8.546-9.891-13.407c0.029-0.235-0.105-0.434-0.339-0.576
	c-3.228-5.501-6.546-10.9-11.948-14.384c2.669-1.135,5.25-2.455,7.695-3.952c2.363,4.867,5.838,8.913,9.438,12.886
	c-0.078,0.296,0.192,0.552,0.608,0.672c1,1.099,2.005,2.194,2.994,3.304c-0.405,0.273-0.912,0.799-0.482,1.205
	c3.039,2.874,6.541,5.231,9.228,8.461c0.175,0.21,0.46,0.309,0.78,0.33c1.264,5.873-3.855,6.99-8.866,6.345
	C350.132,314.157,350.578,313.784,350.299,313.541z M489.463,442.088c-2.554,1.819-5.447,2.853-8.482,3.368
	c-0.172-0.228-0.336-0.456-0.514-0.683c-0.494-0.63-3.267,0.341-2.715,1.041c0.001,0.001,0.001,0.002,0.002,0.003
	c-2.379,0.133-4.803,0.01-7.188-0.267c-2.361-0.272-4.681-0.688-6.883-1.149c-0.387-0.08-0.774-0.161-1.153-0.244
	c-10.273-2.244-19.486-7.447-27.179-14.535c-14.308-13.18-22.609-31.696-32.604-48.041c-4.582-7.492-9.622-14.701-15.551-21.195
	c-0.324-0.354-1.03-0.35-1.656-0.156c-6.932-3.588-17.937-3.768-22.298-10.322c3.187-0.629,6.293-2.164,8.383-4.117
	c1.207-1.129-1.663-0.986-2.301-0.391c-4.092,3.824-11.488,4.816-14.447-0.354c4.401-0.016,8.851-2.08,12.197-6.709
	c1.084-1.499-1.645-1.953-2.43-0.867c-6.747,9.332-17.244,5.551-21.52-3.043c6.024,0.926,13.436-4.787,17.995-7.198
	c1.746-0.923,0.174-2.497-1.287-1.725c-5.575,2.948-14.354,11.024-19.813,3.669c-2.741-3.692-0.439-10.454,2.245-14.67
	c7.025,2.46,21.728,2.781,18.891-7.75c-0.082-0.307-0.509-0.4-1.009-0.359c-2.329-2.752-5.231-4.873-7.922-7.246
	c0.307-0.196,0.517-0.441,0.514-0.697c15.336-5.389,30.094,5.453,39.34,17.311c5.136,6.586,11.104,12.371,17.17,18.103
	c6.034,5.702,12.315,11.134,18.581,16.579c2.214,3.197,4.815,6.172,7.974,8.831c13.994,11.782,33.912,15.254,43.315,32.308
	c0.562,1.018,3.353,0.019,2.668-1.223c-5.709-10.354-15.549-16.186-25.608-21.682c9.858-3.759,19.983-6.861,30.182-9.599
	c7.132,12.681,11.214,27.515,13.197,41.833C501.41,414.288,501.834,433.271,489.463,442.088z M140.632,320.548
	c10.993,0.244,22.094-0.295,32.997-0.547c12.029-0.279,27.155,1.628,36.742-7.186c7.081-6.511,7.752-17.623,8.059-26.573
	c0.42-12.241,0.22-24.538,0.404-36.789c0.095-6.313,0.035-12.627-0.429-18.927c-0.422-5.738-0.978-12.137-4.249-17.026
	c-4.569-6.83-14.696-9.663-22.425-10.451c-16.931-1.727-34.268-1.376-51.273-1.395c-0.024,0-0.056,0.005-0.086,0.009
	c-14.016,0.038-28.058,0.234-42.052,0.954c-6.987,0.36-13.868,1.192-20.317,4.158c-3.684,1.694-7.564,3.904-9.878,7.363
	c-3.066,4.583-3.586,10.289-4.135,15.656c-1.286,12.573-0.55,25.448-0.276,38.063c0.25,11.513-0.905,23.409,2.043,34.673
	c1.942,7.418,7.675,14.713,15.615,16.12c5.661,1.003,11.629,0.919,17.354,1.118C112.543,320.249,126.691,320.983,140.632,320.548z
	 M66.888,229.019c0.532-6.092,1.306-12.461,5.598-17.121c4.267-4.634,11.651-6.895,17.75-7.583
	c7.87-0.888,15.886-0.901,23.795-1.089c8.995-0.213,17.994-0.34,26.992-0.356c14.498,0.03,29.029,0.208,43.503,1.001
	c8.997,0.492,18.404,2.215,25.204,8.625c4.243,4,4.847,10.359,5.496,15.814c0.186,1.564,0.324,3.135,0.432,4.709
	c-49.614,0-99.229,0-148.843,0c-0.073,0-0.141,0.009-0.21,0.017C66.684,231.695,66.771,230.356,66.888,229.019z M68.656,301.753
	c-3.278-10.998-1.876-23.358-2.043-34.672c-0.157-10.631-0.619-21.316-0.117-31.949c0.021,0,0.038,0.004,0.06,0.004
	c49.734,0,99.468,0,149.201,0c0.008,0,0.016-0.002,0.023-0.002c0.226,4.502,0.213,9.023,0.177,13.516
	c-0.101,12.314-0.177,24.644-0.388,36.955c-0.186,10.895-1.21,23.633-11.292,30.068c-5.294,3.38-13.098,2.595-19.099,2.823
	c-9.223,0.351-18.454,0.5-27.682,0.583c-1.573,0.014-3.152,0.037-4.733,0.062c0.225-0.227,0.148-0.394-0.611-0.332
	c-2.443,0.197-4.901,0.322-7.363,0.419c-4.386,0.011-8.771-0.074-13.113-0.425c-0.329-0.026-1.21,0.268-1.782,0.573
	c-7.73-0.113-15.465-0.438-23.097-0.632c-7.04-0.179-14.117-0.33-21.131-0.999C76.855,316.907,71.048,309.778,68.656,301.753z
	 M531.421,141.314c-0.423-5.737-0.979-12.136-4.249-17.026c-4.568-6.831-14.695-9.664-22.425-10.452
	c-16.93-1.726-34.268-1.38-51.271-1.393c-0.039,0-0.086,0.005-0.14,0.014c-13.998,0.034-28.023,0.229-42,0.947
	c-6.986,0.36-13.867,1.192-20.316,4.158c-3.685,1.694-7.564,3.905-9.878,7.364c-3.065,4.584-3.587,10.289-4.136,15.656
	c-1.286,12.574-0.55,25.449-0.275,38.063c0.251,11.513-0.905,23.409,2.043,34.671c1.943,7.42,7.676,14.713,15.616,16.12
	c5.661,1.003,11.629,0.919,17.354,1.118c13.815,0.48,27.962,1.215,41.901,0.779c10.994,0.244,22.097-0.293,33.001-0.547
	c12.027-0.279,27.153,1.627,36.741-7.186c7.082-6.51,7.752-17.621,8.059-26.572c0.42-12.24,0.221-24.539,0.404-36.788
	C531.944,153.928,531.884,147.614,531.421,141.314z M528.971,159.438c-0.101,12.313-0.177,24.643-0.388,36.953
	c-0.187,10.896-1.21,23.635-11.293,30.069c-5.295,3.378-13.098,2.594-19.099,2.822c-9.223,0.351-18.453,0.5-27.681,0.584
	c-1.573,0.015-3.151,0.038-4.732,0.062c0.224-0.227,0.146-0.393-0.612-0.331c-2.442,0.196-4.898,0.321-7.359,0.418
	c-4.387,0.011-8.772-0.074-13.116-0.424c-0.328-0.026-1.207,0.267-1.778,0.571c-7.731-0.114-15.467-0.438-23.101-0.632
	c-7.04-0.179-14.117-0.33-21.132-0.999c-8.808-0.839-14.615-7.965-17.008-15.99c-3.278-10.998-1.876-23.359-2.044-34.672
	c-0.188-12.671-0.827-25.42,0.276-38.063c0.531-6.092,1.307-12.462,5.598-17.122c4.266-4.634,11.65-6.895,17.748-7.583
	c7.871-0.888,15.887-0.901,23.796-1.089c9.017-0.213,18.04-0.342,27.06-0.355c14.475,0.027,28.984,0.208,43.435,1
	c8.997,0.492,18.405,2.215,25.204,8.625c4.242,4,4.847,10.359,5.495,15.814C529.039,145.832,529.025,152.668,528.971,159.438z
	 M88.922,222.075c1.941-0.979,3.457-2.76,2.135-4.922c-1.207-1.974-3.631-2.808-5.852-2.445c-0.556,0.092-1.491,0.347-1.641,1.004
	c-0.043,0.188,0.019,0.322,0.129,0.425c-1.605,1.257-2.213,3.092-0.923,4.924C84.133,222.996,86.989,223.05,88.922,222.075z
	 M87.989,220.699c-2.022,1.413-4.24-2.554-2.068-3.966c0.071-0.047,0.144-0.107,0.214-0.172
	C87.941,217.238,89.86,219.392,87.989,220.699z M102.765,222.075c1.941-0.979,3.457-2.76,2.136-4.922
	c-1.207-1.974-3.631-2.808-5.852-2.445c-0.556,0.092-1.491,0.347-1.641,1.004c-0.043,0.188,0.019,0.322,0.129,0.425
	c-1.605,1.257-2.212,3.092-0.923,4.924C97.976,222.996,100.833,223.05,102.765,222.075z M101.832,220.699
	c-2.022,1.413-4.239-2.554-2.068-3.966c0.071-0.047,0.144-0.107,0.214-0.172C101.785,217.238,103.704,219.392,101.832,220.699z
	 M116.608,222.075c1.941-0.979,3.457-2.76,2.135-4.922c-1.207-1.974-3.63-2.808-5.851-2.445c-0.556,0.092-1.491,0.347-1.641,1.004
	c-0.043,0.188,0.019,0.322,0.129,0.425c-1.605,1.257-2.213,3.092-0.923,4.924C111.82,222.996,114.677,223.05,116.608,222.075z
	 M115.676,220.699c-2.022,1.413-4.239-2.554-2.068-3.966c0.071-0.047,0.144-0.107,0.213-0.172
	C115.628,217.238,117.547,219.392,115.676,220.699z M113.687,277.857c-6.986,0-13.972,0-20.958,0
	c-0.464,0.068-0.909,0.038-1.151-0.116c-0.015-0.009-0.031-0.018-0.043-0.027c-0.158-0.123-0.205-0.313-0.049-0.59
	c3.944-7.015,8.362-13.748,12.305-20.764c0.454-0.806,3.357-1.139,2.693,0.043c-3.805,6.768-8.043,13.279-11.879,20.03
	c6.36,0,12.721,0,19.082,0c0-5.272,0-10.545,0-15.817c0-0.901,2.897-1.35,2.897-0.777c0,5.531,0,11.063,0,16.595
	c0.228,0,0.456,0,0.683,0c1.648,0,0.33,1.017-0.683,1.331c0,6.073,0,12.146,0,18.221c0,0.901-2.897,1.35-2.897,0.777
	C113.687,290.461,113.687,284.159,113.687,277.857z M150.705,277.124c3.943-7.015,8.361-13.748,12.305-20.764
	c0.454-0.806,3.357-1.139,2.693,0.043c-3.805,6.768-8.043,13.279-11.878,20.03c6.361,0,12.721,0,19.082,0c0-5.272,0-10.545,0-15.817
	c0-0.901,2.897-1.35,2.897-0.777c0,5.531,0,11.063,0,16.595c0.228,0,0.454,0,0.682,0c1.647,0,0.331,1.017-0.682,1.33
	c0,6.074,0,12.147,0,18.222c0,0.901-2.897,1.35-2.897,0.777c0-6.302,0-12.604,0-18.905c-6.986,0-13.972,0-20.958,0
	c-0.465,0.068-0.91,0.038-1.153-0.116c-0.014-0.009-0.029-0.018-0.041-0.027C150.596,277.591,150.549,277.401,150.705,277.124z
	 M123.636,276.735c0.879-8.364,4.959-16.969,14.373-17.307c1.951-0.069-0.103,1.56-1.14,1.598
	c-8.368,0.299-10.645,12.129-10.476,18.676c0.143,5.513,1.628,15.979,8.496,17.281c8.146,1.545,9.781-13.133,9.947-18.494
	c0.144-4.645,0.29-17.561-5.983-19.033c-1.63-0.383,0.896-1.744,1.785-1.535c8.372,1.965,7.609,17.835,6.778,24.066
	c-0.928,6.953-4.324,18.426-13.675,16.652C124.566,296.899,122.837,284.337,123.636,276.735z M116.516,142.2
	c-3.106-4.413-1.741-9.047,2.647-11.902c0.589-0.383,3.518-0.607,2.254,0.215c-8.904,5.794,0.955,18.914,8.773,12.416
	c7.353-6.111-3.542-14.959-10.146-13.88c-2.027,0.331-0.742-1.046,0.491-1.248c5.039-0.823,10.69,1.022,13.464,5.56
	c3.186,5.211,0.179,9.111-4.624,11.531C125.167,147.011,119.34,146.214,116.516,142.2z M153.65,142.312
	c-3.227-4.584-1.769-9.572,2.791-12.539c1.149-0.747,3.555,0.192,1.906,1.266c-8.255,5.371,0.121,16.731,8.109,12.029
	c3.831-2.256,3.902-6.574,1.087-9.738c-2.64-2.968-6.319-4.524-10.287-3.876c-1.968,0.321-1.279-1.803,0.274-2.057
	c5.125-0.837,11.267,1.478,13.785,6.267c2.595,4.937,0.336,9.061-4.372,11.434C162.494,147.339,156.671,146.604,153.65,142.312z
	 M191.032,142.563c-3.547-4.382-2.138-9.244,2.363-12.173c0.488-0.318,3.392-0.74,2.205,0.031c-3.36,2.188-4.959,6.184-2.754,9.824
	c2.293,3.785,6.954,6.003,10.947,3.213c8.266-5.773-2.441-15.699-9.574-14.533c-2.044,0.334-0.574-0.814,0.558-1
	c5.022-0.82,10.644,0.877,13.43,5.436c3.027,4.951,0.36,9.393-4.654,11.42C199.275,146.509,194.179,146.45,191.032,142.563z
	 M227.948,142.563c-3.547-4.382-2.138-9.244,2.363-12.173c0.488-0.318,3.392-0.74,2.205,0.031c-3.36,2.188-4.959,6.184-2.754,9.824
	c2.292,3.785,6.954,6.004,10.947,3.213c8.265-5.773-2.441-15.699-9.574-14.533c-2.044,0.334-0.574-0.814,0.558-1
	c5.022-0.82,10.644,0.877,13.43,5.436c3.027,4.951,0.36,9.393-4.653,11.42C236.191,146.509,231.095,146.45,227.948,142.563z
	 M411.569,204.94C411.107,205.191,411.233,205.033,411.569,204.94L411.569,204.94z M492.979,141.122
	c-4.189,3.488-8.399,6.952-12.622,10.4c-10.437-11.998-29.094-15.408-43.638-8.875c-0.277,0.125-0.466,0.262-0.596,0.4
	c-0.348-0.068-0.76-0.028-1.156,0.184c-17.555,9.369-21.784,31.425-11.963,47.904c0.786,1.319,1.645,2.541,2.555,3.688
	c-1.161,0.88-2.312,1.775-3.478,2.65c-2.387,1.79-4.788,3.561-7.226,5.283c-0.817,0.578-1.645,1.143-2.481,1.691
	c-0.372,0.244-0.629,0.396-0.805,0.492c0.276-0.077,0.692-0.105,1.027,0.186c-0.594-0.518-3.184,0.596-2.729,0.992
	c1.715,1.494,7.163-3.228,8.216-3.977c2.834-2.018,5.627-4.096,8.405-6.191c11.438,13.144,31.024,13.963,46.262,5.547
	c16-8.837,19.969-30.557,10.765-45.668c-0.672-1.104-1.411-2.148-2.198-3.145c4.781-3.9,9.546-7.822,14.288-11.77
	C496.238,140.388,493.517,140.675,492.979,141.122z M425.671,189.914c-9.515-14.802-5.501-36.618,10.526-45.171
	c0.277-0.148,0.463-0.306,0.586-0.463c0.353,0.077,0.767,0.059,1.166-0.121c6.155-2.766,15.303-3.43,21.901-2.189
	c7.061,1.327,13.516,5.895,18.215,11.41c-10.995,8.949-22.082,17.785-33.227,26.543c-5.606,4.405-11.244,8.771-16.913,13.096
	C427.129,192.038,426.373,191.007,425.671,189.914z M480.849,157.051c9.045,13.544,4.875,33.728-8.652,42.521
	c-14.368,9.34-32.479,6.786-43.315-5.424c3.604-2.749,7.18-5.536,10.756-8.314c13.238-10.285,26.375-20.711,39.385-31.291
	C479.67,155.364,480.281,156.202,480.849,157.051z M121.795,401.272c1.271,2.097,3.975,3.844,6.281,2.232
	c5.07-3.543-1.501-10.066-5.979-9.334c-2.044,0.334-0.574-0.814,0.558-1c3.428-0.56,7.272,0.455,9.192,3.596
	c2.054,3.359,0.092,6.309-3.261,7.662c-3.024,1.223-6.718,1.42-8.979-1.373c-2.385-2.944-1.324-6.158,1.667-8.104
	c0.488-0.318,3.392-0.74,2.205,0.031C121.327,396.384,120.401,398.971,121.795,401.272z M131.847,454.446
	c2.054,3.361,0.091,6.309-3.261,7.663c-3.024,1.222-6.718,1.42-8.979-1.372c-2.384-2.945-1.324-6.159,1.667-8.104
	c0.488-0.318,3.392-0.74,2.205,0.031c-2.151,1.399-3.077,3.986-1.683,6.287c1.271,2.099,3.975,3.844,6.281,2.232
	c5.07-3.543-1.501-10.065-5.979-9.332c-2.044,0.334-0.574-0.814,0.558-1C126.082,450.292,129.927,451.306,131.847,454.446z
	 M102.996,424.894c-1.788-3.55-5.033-3.874-8.444-2.368c-3.404,1.503-5.419,5.349-4.826,8.979c0.041,0.25,0.695,0.246,1.371,0.103
	C95.366,437.909,106.557,431.963,102.996,424.894z M99.851,431.451c-1.762,2.831-4.417,1.603-5.93-0.724
	c-0.182-0.28-0.733-0.25-1.307-0.1c-0.332-2.194,0.265-4.21,1.56-6c0.675-0.934,1.779-2.042,3.008-1.813
	c1.22,0.229,2.081,1.354,2.665,2.346C101.054,427.214,101.116,429.417,99.851,431.451z M152.233,422.525
	c-3.404,1.503-5.419,5.349-4.826,8.979c0.041,0.251,0.695,0.246,1.372,0.103c4.269,6.302,15.459,0.355,11.898-6.714
	C158.889,421.345,155.644,421.019,152.233,422.525z M157.531,431.451c-1.762,2.831-4.417,1.603-5.93-0.724
	c-0.183-0.28-0.734-0.251-1.308-0.1c-0.331-2.194,0.265-4.211,1.56-6c0.675-0.934,1.779-2.042,3.008-1.813
	c1.219,0.229,2.081,1.354,2.665,2.346C158.735,427.214,158.796,429.417,157.531,431.451z M111.906,408.874
	c-2.184,6.703-15.238,6.797-13.395-1.76c0.146-0.682,2.979-1.114,2.853-0.531c-0.499,2.318,0.198,4.813,2.599,5.725
	c2.558,0.973,4.274-0.497,5.091-2.902c1.993-5.867-5.306-8.354-8.607-3.738c-0.488,0.683-3.014,0.757-2.853,0.531
	c2.123-2.969,6.175-4.495,9.77-4.154C111.238,402.413,113.113,405.17,111.906,408.874z M152.692,449.661
	c-2.184,6.701-15.238,6.797-13.396-1.76c0.146-0.682,2.979-1.114,2.853-0.531c-0.499,2.318,0.198,4.813,2.599,5.725
	c2.558,0.972,4.274-0.497,5.092-2.902c1.992-5.866-5.306-8.354-8.607-3.74c-0.488,0.683-3.014,0.756-2.853,0.531
	c2.123-2.967,6.176-4.492,9.77-4.151C152.023,443.2,153.9,445.957,152.692,449.661z M108.274,442.61
	c-3.12-1.018-7.071-0.737-8.905,2.391c-1.937,3.305-0.2,7.881,2.699,9.954c0.489,0.351,2.033-0.25,2.576-0.667
	c2.833,0.145,5.841-0.963,7.078-3.656C113.124,447.581,111.464,443.649,108.274,442.61z M105.548,453.013
	c-0.291-0.063-0.944,0.111-1.515,0.34c-1.456-1.355-2.258-3.156-2.481-5.18c-0.127-1.151,0.069-2.307,0.507-3.371
	c0.578-1.406,1.429-1.809,2.887-1.419c2.449,0.654,3.995,2.485,4.32,4.972C109.583,450.781,108.278,453.601,105.548,453.013z
	 M145.432,413.501c2.833,0.145,5.841-0.963,7.077-3.655c1.402-3.052-0.259-6.982-3.448-8.022c-3.121-1.018-7.072-0.736-8.906,2.392
	c-1.936,3.304-0.201,7.88,2.699,9.953C143.345,414.519,144.891,413.917,145.432,413.501z M142.846,404.015
	c0.578-1.406,1.429-1.809,2.887-1.419c2.448,0.653,3.995,2.487,4.32,4.973c0.317,2.428-0.989,5.243-3.719,4.655
	c-0.292-0.063-0.946,0.112-1.517,0.34c-1.454-1.354-2.256-3.154-2.479-5.176C142.211,406.235,142.408,405.08,142.846,404.015z" fill="#0984E3"></path>
</svg>