<?xml version="1.0" standalone="no"?>
<svg version="1.1" id="Layer_1" xmlns="http://www.w3.org/2000/svg" xmlns:xlink="http://www.w3.org/1999/xlink" x="0px" y="0px" viewBox="0 0 595.28 595.28" enable-background="new 0 0 595.28 595.28" xml:space="preserve">
<path id="color_x5F_7" fill="#FFFFFF" d="M220.041,215.454c0,0,2.976,13.012-6.01,16.016c0,0,14.513-2.267,17.263-10.771
	c0,0,50.456-2.097,50.769-23.132c0.369-23.187-9.411-33.052-47.792-32.116C203.061,166.216,197.534,204.2,220.041,215.454z
	 M232.909,209.475h-4.45v-4.593h4.45V209.475z M256.692,209.475h-4.422v-4.593h4.422V209.475z M246.911,177.953
	c1.02-0.397,2.296-0.765,3.855-1.077c1.559-0.312,3.033-0.454,4.422-0.454l0,0c0,0,0,0,0.001,0c3.118,0,5.584,0.766,7.398,2.268
	c1.786,1.502,2.693,3.515,2.693,5.981c0,1.446-0.255,2.693-0.765,3.798c-0.482,1.135-1.162,2.097-1.984,2.949
	c-0.822,0.85-1.757,1.616-2.806,2.352c-1.077,0.709-2.182,1.418-3.373,2.098v4.904h-0.001h-3.911h-0.001v-6.633
	c0.963-0.539,1.984-1.134,3.061-1.786c1.106-0.623,2.013-1.276,2.693-1.927c0.85-0.737,1.502-1.531,1.956-2.325
	c0.482-0.821,0.709-1.843,0.709-3.09c0-1.643-0.567-2.862-1.672-3.656c-1.106-0.823-2.552-1.219-4.309-1.219
	c-1.559,0-3.033,0.255-4.449,0.737c-1.389,0.51-2.495,0.992-3.317,1.502h-0.198h-0.001l0,0h-0.001L246.911,177.953L246.911,177.953z
	 M223.129,182.374v-4.421v-0.001c0.992-0.397,2.296-0.765,3.855-1.077c1.559-0.312,3.033-0.454,4.422-0.454
	c3.118,0,5.584,0.766,7.398,2.268c1.786,1.502,2.693,3.515,2.693,5.981l0,0l0,0c0,1.446-0.255,2.693-0.765,3.798
	c-0.51,1.135-1.162,2.097-1.984,2.949c-0.822,0.85-1.757,1.616-2.806,2.352c-1.077,0.709-2.182,1.418-3.373,2.098v4.903v0.001
	h-3.912v-0.001v-6.632v-0.001c0.963-0.539,1.956-1.134,3.061-1.786c1.106-0.623,1.984-1.276,2.693-1.927
	c0.851-0.737,1.503-1.531,1.956-2.325c0.454-0.821,0.709-1.843,0.709-3.089c0-1.643-0.567-2.862-1.672-3.656
	c-1.106-0.823-2.551-1.219-4.309-1.219c-1.559,0-3.033,0.255-4.45,0.737c-1.389,0.51-2.495,0.992-3.318,1.502L223.129,182.374
	L223.129,182.374z M340.598,333.207H235.262v58.478h105.336V333.207z M312.222,376.746L312.222,376.746L312.222,376.746l-2.551,3.26
	l-21.742-16.951l-21.969,16.696l-2.523-3.316l0,0l0,0l21.09-16.044l-20.891-16.299l0,0l0,0l2.58-3.289l21.742,16.98l21.94-16.696
	l2.523,3.316l-21.061,16.044L312.222,376.746z M175.2,268.957c0.01-0.019,0.022-0.041,0.032-0.06
	c0.574-1.078,1.772-3.088,3.677-5.167c0,0.057,2.976,25.455-14.145,22.705c-17.064-2.722-13.067-21.175-13.067-21.232
	c0.304,0.276,0.592,0.546,0.864,0.81c0.002,0.002,0.005,0.005,0.007,0.007c0.004,0.004,0.009,0.009,0.013,0.013
	c0.003,0.003,0.006,0.006,0.01,0.01c0.239,0.231,0.462,0.454,0.676,0.671c0.002,0.002,0.004,0.004,0.006,0.006
	c0.073,0.075,0.145,0.148,0.215,0.221c0.003,0.003,0.005,0.006,0.008,0.009c0.147,0.152,0.288,0.3,0.421,0.441
	c0.001,0.001,0.002,0.002,0.003,0.003c0.119,0.127,0.232,0.249,0.339,0.367c0.002,0.002,0.003,0.004,0.005,0.006
	c0.076,0.083,0.154,0.168,0.223,0.245c0.001,0.001,0.001,0.001,0.002,0.002c0.139,0.155,0.266,0.3,0.381,0.432
	c0.002,0.002,0.004,0.004,0.005,0.006c0.029,0.033,0.062,0.071,0.089,0.102c0.001,0.001,0.001,0.001,0.002,0.002
	c0.132,0.154,0.248,0.292,0.342,0.405l0,0c0.005,0.007,0.013,0.016,0.018,0.022c0.203,0.246,0.31,0.386,0.31,0.386l0,0
	c0,0,1.502,8.589,5.669,11.169c1.302,0.806,2.646,1.197,3.949,1.203c2.867,0.015,5.536-1.829,7.134-5.2
	c0.588-1.233,1.035-2.277,1.374-3.149c1.017-2.615,1.064-3.683,1.064-3.683h0.001c0,0,0.1-0.226,0.297-0.61
	C175.149,269.053,175.172,269.009,175.2,268.957z M184.494,301.856v38.551c0,2.268-1.871,4.139-4.139,4.139h-33.732
	c-2.296,0-4.139-1.871-4.139-4.139v-38.551c0-2.297,1.843-4.139,4.139-4.139h33.732
	C182.623,297.717,184.494,299.559,184.494,301.856z M101.921,293.38c0,0-13.006,13.428-15.015,17.049
	c-0.003,0.005-0.006,0.01-0.009,0.015c-3.033-2.609-4.989-4.422-4.989-4.422c2.748-6.998,14.164-16.404,14.174-16.413l0,0
	c0,0,0.03,0.02,0.074,0.05C96.588,289.947,99.041,291.58,101.921,293.38z M231.043,289.501c-0.001-0.001-0.005-0.005-0.005-0.005
	c0.407-0.228,0.8-0.446,1.178-0.657c2.125-1.183,3.723-2.061,4.195-2.32c0.093-0.051,0.154-0.085,0.154-0.085
	c1.134,0.837,2.12,1.787,2.978,2.796c1.06,1.247,1.924,2.583,2.625,3.905c2.402,4.53,2.901,8.89,2.901,8.89l0,0
	c0,0-0.093,0.094-0.23,0.231c-0.017,0.017-0.031,0.032-0.051,0.051c-0.634,0.635-2.352,2.338-4.736,4.566c0-0.002,0-0.004,0-0.005
	C240.358,300.409,231.141,289.616,231.043,289.501z M442.616,424.482H415.46v-4.168h27.156V424.482z M415.461,431.37v-4.167h27.155
	v4.167H415.461z M415.461,438.23v-4.167h27.155v4.167H415.461z"></path>
<path id="color_x5F_6" fill="#FEBE40" d="M144.611,223.618l3.457-4.762c1.587-2.211,3.628-4.054,5.953-5.471l0,0
	c0,0-0.001,0-0.001,0.001c2.343,0.87,4.437,1.944,6.314,3.157c0.041,0.027,0.085,0.051,0.126,0.078
	c0.375,0.245,0.734,0.499,1.091,0.755c0.099,0.071,0.204,0.138,0.302,0.209c0.312,0.228,0.609,0.465,0.908,0.701
	c0.133,0.105,0.272,0.206,0.402,0.312c0.261,0.213,0.508,0.433,0.758,0.651c0.156,0.135,0.318,0.268,0.47,0.405
	c0.223,0.201,0.432,0.408,0.646,0.613c0.167,0.16,0.34,0.317,0.503,0.478c0.19,0.19,0.369,0.384,0.552,0.576
	c0.174,0.182,0.353,0.362,0.521,0.546c0.162,0.177,0.313,0.358,0.469,0.537c0.177,0.203,0.359,0.404,0.53,0.609
	c0.139,0.166,0.267,0.335,0.402,0.502c0.176,0.22,0.357,0.439,0.526,0.661c0.12,0.157,0.231,0.315,0.347,0.473
	c0.172,0.233,0.347,0.466,0.511,0.7c0.104,0.149,0.2,0.298,0.302,0.447c0.165,0.244,0.333,0.487,0.49,0.731
	c0.09,0.139,0.172,0.278,0.259,0.417c0.159,0.253,0.319,0.507,0.469,0.759c0.078,0.131,0.149,0.262,0.225,0.393
	c0.149,0.259,0.3,0.518,0.441,0.774c0.068,0.124,0.13,0.247,0.196,0.371c0.14,0.262,0.281,0.524,0.412,0.783
	c0.059,0.117,0.113,0.231,0.17,0.348c0.13,0.263,0.26,0.525,0.38,0.784c0.052,0.112,0.099,0.221,0.15,0.332
	c0.119,0.26,0.237,0.52,0.347,0.775c0.045,0.105,0.086,0.206,0.13,0.31c0.108,0.255,0.215,0.511,0.315,0.76
	c0.041,0.104,0.078,0.204,0.118,0.306c0.095,0.244,0.191,0.489,0.278,0.726c0.037,0.1,0.07,0.196,0.106,0.296
	c0.084,0.232,0.168,0.464,0.244,0.688c0.034,0.1,0.064,0.194,0.097,0.292c0.072,0.216,0.144,0.433,0.21,0.641
	c0.03,0.095,0.056,0.185,0.085,0.279c0.062,0.201,0.124,0.403,0.18,0.595c0.028,0.096,0.052,0.186,0.079,0.279
	c0.051,0.178,0.102,0.358,0.147,0.526c0.027,0.1,0.05,0.193,0.075,0.289c0.039,0.151,0.08,0.305,0.115,0.447
	c0.025,0.101,0.046,0.193,0.069,0.289c0.03,0.125,0.061,0.252,0.087,0.368c0.024,0.104,0.044,0.198,0.065,0.295
	c0.021,0.094,0.043,0.192,0.061,0.279c0.022,0.106,0.041,0.2,0.06,0.295c0.012,0.062,0.026,0.13,0.037,0.188
	c0.022,0.113,0.04,0.213,0.057,0.307c0.004,0.024,0.01,0.054,0.014,0.077c0.06,0.343,0.087,0.54,0.09,0.561c0,0,0,0,0-0.001v0.001
	c-0.009,0.013-0.018,0.026-0.027,0.039l0.028-0.03l-2.381,3.742l0,0l0,0l0,0C173.58,245.104,160.286,222.287,144.611,223.618z
	 M315.426,466.548h-66.671v10.007h66.671V466.548z M394.456,381.027L394.456,381.027l-1.503,6.888h-30.869l-1.304-6.888
	l5.478,29.169h21.872L394.456,381.027z"></path>
<path id="color_x5F_5" fill="#FFD2BB" d="M148.919,483.867l-2.835,14.428c0,0-3.316,2.183-9.609,3.686
	c-2.647,0.638-3.76-0.034-4.157-1.031c-0.001-0.002-0.001-0.004-0.002-0.006c-0.043-0.109-0.078-0.221-0.105-0.337
	c-0.107-0.457-0.092-0.95-0.031-1.408c0-1.641,0.128-3.215,0.128-4.643l0.283-10.69h16.328V483.867z M92.594,274.416
	c-0.312-1.928-2.636-2.098-3.77-0.794c-1.105,1.304-1.105,5.981-1.105,5.981s-1.191-0.482-2.58-1.729
	c-1.361-1.247-7.001-9.694-8.305-10.573s-3.175-0.425-3.26,1.502c-0.057,1.928,2.381,6.379,2.381,6.379s-3.685-3.94-6.18-4.139
	c-2.494-0.17-3.827,2.324-1.927,3.628c1.871,1.332,3.94,4.706,3.94,4.706s0.227,0.481-0.964-0.567
	c-1.162-1.077-3.742-2.324-6.179-1.814c-2.438,0.511-3.061,3.175-0.567,4.252c2.523,1.049,2.948,2.126,2.948,2.126
	s-1.077-0.255-3.175,0c-2.126,0.256-3.26,2.552-2.069,4.11c1.191,1.56,3.033,0.142,7.03,1.39c3.997,1.246,5.499,5.584,8.504,8.078
	c2.941,2.441,8.311,2.818,8.539,2.833c2.085-2.56,4.526-5.008,6.501-6.862c0.38-0.359,0.749-0.705,1.088-1.017
	c0,0,0.198-3.6-0.85-5.584C91.517,284.365,92.906,276.372,92.594,274.416z M269.391,286.576c-2.013-0.766-3.09-0.766-3.09-0.766
	s0.68-0.935,3.345-1.36c2.693-0.425,2.721-3.203,0.482-4.252c-2.239-1.077-5.046-0.481-6.435,0.284
	c-1.417,0.736-1.049,0.312-1.049,0.312s2.806-2.778,4.932-3.601c2.154-0.85,1.474-3.571-1.021-3.996
	c-2.466-0.426-6.973,2.522-6.973,2.522s3.43-3.714,3.827-5.612c0.397-1.899-1.332-2.778-2.806-2.24
	c-1.474,0.539-8.957,7.398-10.602,8.277c-1.616,0.879-2.891,1.078-2.891,1.078s1.106-4.536,0.34-6.095
	c-0.794-1.531-3.09-1.899-3.855-0.085c-0.765,1.785-1.332,9.893-2.835,11.537c-1.502,1.672-2.154,5.215-2.154,5.215
	c0.292,0.439,0.611,0.927,0.938,1.436c1.06,1.247,1.924,2.583,2.625,3.905c0.517,0.974,0.944,1.939,1.298,2.856
	c0.209,0.413,0.414,0.827,0.61,1.243v0.028c0,0,5.471,0.992,8.986-0.708c3.515-1.729,6.01-5.584,10.176-5.84
	c4.195-0.255,5.641,1.588,7.172,0.369C271.943,289.836,271.404,287.313,269.391,286.576z M194.316,494.156l-0.164-11.621h-16.385
	l2.9,14.94c0,0,3.317,2.182,9.638,3.685c0.292,0.069,0.566,0.122,0.822,0.16c0.256,0.038,0.494,0.062,0.715,0.072
	c2.046,0.094,2.667-0.953,2.766-2.081C194.608,498.458,194.316,496.243,194.316,494.156z M179.648,246.522
	c1.501-0.624,2.897-1.644,3.825-2.89c0.928-1.247,1.388-2.721,1.02-4.252c-0.723-2.919-4.832-2.649-6.289-1.201
	c-0.084,0.084-0.164,0.171-0.229,0.263c-0.037,0.054-0.087,0.125-0.127,0.182c-0.5,0.719-1.189,1.692-1.888,2.728v0.001l0,0
	c0,0.001,0.001,0.01,0.001,0.01l-2.381,3.742l0,0c-0.234,0.52-0.659,1.037-1.099,1.479c-0.734,0.738-1.509,1.27-1.509,1.27
	s0.368-1.672-1.956-3.231c-2.296-1.559-7.115-2.382-13.493-6.945c-4.673-3.341-5.837-6.655-6.15-8.188
	c0.056,1.392-0.201,4.194-2.806,7.054c-3.657,3.997-1.247,14.655,0,17.574c1.248,2.92,5.84,6.322,11.339,6.492
	c0,0,1.672,6.094,1.502,8.759h-0.001v0.001h-3.769c0.002,0.011,1.505,8.59,5.669,11.168c3.124,1.934,6.489,1.477,8.957-0.941
	c0.822-0.806,1.545-1.829,2.125-3.055c0.588-1.233,1.035-2.277,1.374-3.149c1.017-2.615,1.064-3.683,1.064-3.683h-3.996
	l-1.843-15.023l0,0v-0.001c0,0,4.649-5.499,5.414-7.993C174.402,246.693,176.642,247.771,179.648,246.522z"></path>
<path id="color_x5F_4" fill="#00CEC9" d="M193.989,500.77c0.054-0.053,0.099-0.111,0.145-0.169
	C194.088,500.659,194.043,500.717,193.989,500.77z M193.154,501.252c0.075-0.023,0.136-0.056,0.204-0.084
	C193.291,501.196,193.229,501.229,193.154,501.252z M242.803,294.43c0.039,0.085,0.08,0.171,0.118,0.256
	C242.883,294.6,242.843,294.516,242.803,294.43z M193.803,500.919c-0.058,0.043-0.112,0.089-0.177,0.128
	C193.691,501.008,193.745,500.963,193.803,500.919z M132.031,369.149c-0.839-0.037-1.599-0.103-2.229-0.224
	C130.432,369.046,131.191,369.112,132.031,369.149z M192.771,501.333c-0.071,0.012-0.132,0.031-0.207,0.04
	C192.639,501.364,192.7,501.345,192.771,501.333z M194.257,500.437c0.042-0.066,0.076-0.136,0.11-0.207
	C194.333,500.3,194.299,500.37,194.257,500.437z M194.442,500.06c0.029-0.078,0.053-0.159,0.074-0.24
	C194.495,499.901,194.471,499.982,194.442,500.06z M194.556,499.655c0.017-0.088,0.031-0.177,0.041-0.267
	C194.587,499.478,194.573,499.567,194.556,499.655z M90.961,294.263c-0.087,0.085-0.174,0.17-0.263,0.257
	C90.788,294.432,90.873,294.349,90.961,294.263z M214.969,325.279c0.037-0.011,0.073-0.021,0.109-0.036
	c0.014-0.004,0.028-0.011,0.042-0.017C215.07,325.245,215.02,325.262,214.969,325.279z M215.879,324.922
	c0.109-0.043,0.217-0.083,0.334-0.134c0.08-0.034,0.167-0.074,0.25-0.114C216.266,324.763,216.073,324.841,215.879,324.922z
	 M196.383,329.308c0.192,3.492,0.393,7.264,0.583,11.052c-0.182-3.698-0.375-7.376-0.569-10.807
	C196.393,329.47,196.388,329.389,196.383,329.308z M213.524,325.728c0.151-0.031,0.297-0.072,0.478-0.117
	c0.026-0.01,0.06-0.021,0.09-0.031C213.898,325.638,213.712,325.681,213.524,325.728z M211.056,326.036
	c-9.808-0.511-15.647-13.493-15.647-13.493s0,0.005,0,0.006l-0.001-0.003v0.001c0.029,0.064,5.862,12.98,15.646,13.49
	c0.093,0,0.188-0.007,0.28-0.008C211.242,326.03,211.145,326.041,211.056,326.036z M195.626,316.141
	c0.009,0.148,0.018,0.304,0.028,0.46c-0.008-0.135-0.015-0.273-0.022-0.401C195.626,316.179,195.627,316.161,195.626,316.141z
	 M212.918,325.872c0.011-0.001,0.022-0.002,0.035-0.005c0.004,0,0.008-0.002,0.012-0.003
	C212.949,325.867,212.933,325.869,212.918,325.872z M87.386,297.995c0.053-0.059,0.104-0.118,0.157-0.177
	C87.49,297.877,87.438,297.936,87.386,297.995z M340.598,391.685H235.262v0.001L340.598,391.685L340.598,391.685z M64.078,281.248
	c-0.079-0.034-0.145-0.074-0.217-0.111c0.211,0.735,0.427,1.459,0.65,2.171c1.661-0.134,2.515,0.065,2.515,0.065
	S66.601,282.297,64.078,281.248z M244.078,423.604h145.587v55.247H244.078V423.604z M248.755,452.772h66.671v-10.006h-66.671
	V452.772z M248.755,464.28h66.671v-10.006h-66.671V464.28z M248.755,476.555h66.671v-10.007h-66.671V476.555z M89.037,296.207
	c0.078-0.082,0.155-0.162,0.233-0.243C89.192,296.045,89.115,296.126,89.037,296.207z M132.073,321.583
	c-0.003,0.021-0.008,0.052-0.013,0.085c-0.007,0.049-0.017,0.108-0.028,0.18c-0.007,0.047-0.015,0.097-0.024,0.152
	c-0.007,0.043-0.014,0.088-0.022,0.134c0,0.003-0.001,0.005-0.001,0.009c-0.004,0.024-0.007,0.046-0.011,0.071
	c0.002-0.014,0.004-0.033,0.006-0.047c-0.001,0.007-0.003,0.018-0.004,0.025c-0.001,0.008-0.002,0.015-0.003,0.022
	c-0.044,0.335-0.095,0.775-0.177,1.325c0,0,0,0,0,0.028c-0.028,0.226-0.085,0.51-0.113,0.822c-0.028,0.284-0.085,0.596-0.113,0.936
	c0,0,0,0.011,0,0.018c0.313-2.367,0.51-3.807,0.511-3.815C132.081,321.529,132.078,321.549,132.073,321.583z M139.862,258.534
	c-0.437-0.107-0.849-0.163-1.261-0.219c-0.019-0.003-0.038-0.005-0.057-0.007C138.978,258.371,139.415,258.442,139.862,258.534z
	 M195.548,314.784c0,0.142,0,0.312,0.028,0.453v0.059c-0.021-0.353-0.04-0.674-0.058-0.964c0.001,0.009,0.001,0.017,0.002,0.026
	C195.52,314.501,195.52,314.642,195.548,314.784z M197.205,345.255c0.007,0.138,0.013,0.276,0.02,0.413
	c-0.002-0.043-0.004-0.085-0.005-0.128c0-0.028,0-0.028,0-0.028C197.215,345.425,197.21,345.34,197.205,345.255z M132.025,321.867
	c0-0.012,0.002-0.016,0.003-0.028C132.027,321.851,132.025,321.855,132.025,321.867c-0.002,0.011-0.004,0.028-0.006,0.04
	C132.021,321.895,132.023,321.878,132.025,321.867z M511.718,471.57c-45.978,46.46-77.981,44.533-77.981,44.533l-276.01-0.85H105.74
	c0,0-50.967-5.046-50.683-54.341c0.283-49.407,36.68-35.008,42.661-90.68c4.516-41.822-19.34-49.78-31.471-81.876
	c0.742,0.069,1.588,0.213,2.565,0.518c3.997,1.246,5.499,5.584,8.504,8.078c2.941,2.441,8.311,2.818,8.539,2.833
	c0.017-0.021,0.036-0.041,0.054-0.063c-1.728,2.113-3.217,4.304-4,6.3c0,0,1.956,1.813,4.989,4.422
	c0.003-0.005,0.006-0.01,0.009-0.015c2.009-3.621,15.015-17.049,15.015-17.049c-2.88-1.8-5.333-3.433-5.765-3.721
	c-0.044-0.03-0.074-0.05-0.074-0.05c-0.004,0.003-1.649,1.36-3.839,3.423c0.036-0.034,0.077-0.075,0.113-0.109
	c0.38-0.359,0.749-0.705,1.088-1.017c0,0,0.198-3.6-0.85-5.584c-1.077-1.957,0.312-9.95,0-11.906
	c-0.312-1.928-2.636-2.098-3.77-0.794c-1.105,1.304-1.105,5.981-1.105,5.981s-1.191-0.482-2.58-1.729
	c-1.361-1.247-7.001-9.694-8.305-10.573c-1.304-0.879-3.175-0.425-3.26,1.502c-0.057,1.928,2.381,6.379,2.381,6.379
	s-3.685-3.94-6.18-4.139c-2.494-0.17-3.827,2.324-1.927,3.628c1.871,1.332,3.94,4.706,3.94,4.706s0.227,0.481-0.964-0.567
	c-1.162-1.077-3.742-2.324-6.179-1.814c-0.723,0.151-1.281,0.495-1.651,0.927c-2.16-8.641-3.487-18.868-3.487-31.395
	c0-64.829,98.844-162.454,220.791-103.267c91.587,44.447,57.061,109.758,82.375,154.29c25.342,44.532,73.729,32.485,124.384,46.715
	C537.712,358.496,533.885,449.204,511.718,471.57z M220.041,215.454c0,0,2.976,13.012-6.01,16.016c0,0,14.513-2.267,17.263-10.771
	c0,0,50.456-2.097,50.769-23.132c0.369-23.187-9.411-33.052-47.792-32.116C203.061,166.216,197.534,204.2,220.041,215.454z
	 M224.573,334.881c-1.812-4.481-3.682-8.194-5.27-11.652c-0.255,0.142-0.51,0.283-0.794,0.425c-0.142,0.085-0.312,0.171-0.453,0.255
	c-0.227,0.114-0.454,0.228-0.68,0.341c-0.198,0.085-0.369,0.17-0.539,0.255c-0.061,0.023-0.113,0.05-0.169,0.077
	c7.458-3.437,17.455-12.173,23.384-17.711c0,0.001,0,0.001,0,0.002c2.384-2.228,4.102-3.931,4.736-4.566
	c0.02-0.019,0.034-0.034,0.051-0.051c0.137-0.137,0.23-0.231,0.23-0.231s-0.318-2.741-1.643-6.133
	c0.013,0.032,0.029,0.066,0.041,0.099c0.209,0.413,0.414,0.827,0.61,1.243v0.028c0,0,5.471,0.992,8.986-0.708
	c3.515-1.729,6.01-5.584,10.176-5.84c4.195-0.255,5.641,1.588,7.172,0.369c1.532-1.247,0.993-3.77-1.02-4.507
	c-2.013-0.766-3.09-0.766-3.09-0.766s0.68-0.935,3.345-1.36c2.693-0.425,2.721-3.203,0.482-4.252
	c-2.239-1.077-5.046-0.481-6.435,0.284c-1.417,0.736-1.049,0.312-1.049,0.312s2.806-2.778,4.932-3.601
	c2.154-0.85,1.474-3.571-1.021-3.996c-2.466-0.426-6.973,2.522-6.973,2.522s3.43-3.714,3.827-5.612
	c0.397-1.899-1.332-2.778-2.806-2.24c-1.474,0.539-8.957,7.398-10.602,8.277c-1.616,0.879-2.891,1.078-2.891,1.078
	s1.106-4.536,0.34-6.095c-0.794-1.531-3.09-1.899-3.855-0.085c-0.765,1.785-1.332,9.893-2.835,11.537
	c-1.502,1.672-2.154,5.215-2.154,5.215c0.292,0.439,0.611,0.927,0.938,1.436c1.06,1.247,1.924,2.583,2.625,3.905
	c0.01,0.02,0.018,0.039,0.029,0.058c-0.01-0.02-0.019-0.039-0.03-0.058c-0.701-1.322-1.565-2.658-2.625-3.905
	c-0.858-1.009-1.844-1.959-2.978-2.796c0,0-0.061,0.034-0.154,0.085c-0.472,0.259-2.07,1.137-4.195,2.32
	c-0.378,0.211-0.771,0.429-1.178,0.657c0,0,0.004,0.004,0.005,0.005c0,0,0.001,0.001,0.001,0.001
	c-5.348,3.032-12.867,7.483-14.404,9.378c-0.302,0.372-0.589,0.712-0.865,1.016c-1.449,1.598-2.591,2.239-3.867,1.716
	c1.275,0.522,2.417-0.12,3.865-1.717c0.276-0.304,0.563-0.643,0.864-1.015c4.649-14.627,8.76-19.389,4.139-31.635
	c-4.621-12.246-15.506-8.136-21.997-20.381c-6.492-12.246-1.871-19.248-11.254-29.877c-7.625-8.618-23.356-9.837-33.504-3.602
	c0,0,0,0,0,0c-2.325,1.417-4.366,3.26-5.953,5.471l-3.457,4.762h-0.001c-2.721,2.069-6.123,4.422-7.625,10.006
	c-1.502,5.584,0.652,8.73,0.907,14.825c0.085,1.786-0.028,5.272-0.453,9.724c0.119,0.008,0.233,0.029,0.348,0.043
	c-7.761-0.853-13.503,2.911-16.73,9.65c-3.487,7.342-7.994,29.906-8.646,31.012c-0.654,1.036-15.138-8.485-16.253-9.22
	c0.432,0.288,2.885,1.921,5.765,3.721c0,0-13.006,13.428-15.015,17.049c5.568,4.792,14.725,12.307,21.898,16.426
	c0.001,0,0.001,0.001,0.002,0.001c0.223,0.138,0.446,0.255,0.668,0.377c0.213,0.118,0.425,0.235,0.634,0.346
	c0.099,0.05,0.186,0.099,0.281,0.149c0.7,0.365,1.377,0.693,2.02,0.971c3.045,1.316,5.826,1.826,8.26,1.836c0,0,0,0,0,0
	c-2.436-0.009-5.217-0.52-8.263-1.836c-0.369-0.17-0.737-0.34-1.134-0.51c-0.057-0.029-0.142-0.086-0.227-0.113
	c-0.213-0.117-0.435-0.232-0.657-0.348c-0.095-0.05-0.182-0.099-0.281-0.149c-0.009-0.005-0.017-0.009-0.026-0.014
	c-0.057-0.028-0.113-0.057-0.17-0.085c-0.146-0.078-0.292-0.167-0.438-0.247c-0.222-0.122-0.445-0.239-0.668-0.377
	c-0.001,0-0.001-0.001-0.002-0.001c-0.027-0.002-0.055-0.027-0.055-0.027c-0.425-0.227-0.85-0.481-1.276-0.736
	c-2.381,4.365-3.912,8.844-3.912,13.946c0,11.65,9.184,21.571,23.783,23.159c0.399-7.256,2.128-21.656,3.375-31.492
	c0.028-0.028,0.028-0.085,0.028-0.113c0.17-1.446,0.34-2.778,0.51-3.969c0-0.028,0-0.057,0-0.057
	c0.057-0.397,0.113-0.766,0.142-1.134c0.028-0.028,0.028-0.028,0.028-0.057c0.023-0.3,0.07-0.568,0.116-0.831
	c-1.39,10.518-4.942,38.314-4.14,41.82c0.186,0.814,1.029,1.299,2.398,1.562c-1.37-0.263-2.213-0.748-2.399-1.562v116.504h5.188
	l-0.283,10.689c0,1.428-0.128,3.002-0.128,4.643c-0.061,0.458-0.076,0.951,0.031,1.408c-0.015-0.063-0.017-0.13-0.027-0.194
	c-0.422-0.038-0.81-0.125-1.143-0.279c-0.289,0.317-0.618,0.661-1.03,1.055c-2.863,2.75-7.228,3.543-11.735,4.563
	c-4.507,0.992-4.989,3.431-4.564,4.933c0.425,1.502,16.299,2.239,19.758,0.794c3.43-1.418,3.317-2.552,4.989-4.167
	c1.701-1.645,1.871-2.183,3.005-1.248c1.134,0.936,0.992,5.812,0.992,5.812l4.932-0.142c0,0-0.17-10.687,0-11.48
	c0.199-0.824-1.304-1.958-1.304-1.958s-3.317,2.183-9.609,3.686c-2.592,0.625-3.708-0.009-4.126-0.973
	c0.418,0.963,1.534,1.596,4.126,0.972c6.293-1.503,9.609-3.686,9.609-3.686l2.835-14.428v0h4.988c0,0,3.713-81.467,10.233-81.014
	c7.002,0.51,9.099,79.682,9.099,79.682h4.528l2.9,14.94c0,0,3.317,2.182,9.638,3.685c0.292,0.069,0.566,0.122,0.822,0.16
	c0.256,0.038,0.494,0.062,0.715,0.072c0.003,0,0.005,0,0.008,0c-0.003,0-0.005,0-0.009,0c-0.221-0.01-0.46-0.034-0.715-0.072
	c-0.255-0.038-0.529-0.091-0.822-0.16c-6.321-1.503-9.638-3.685-9.638-3.685s-1.502,1.105-1.304,1.927c0.17,0.822,0,11.509,0,11.509
	l4.932,0.113c0,0-0.142-4.875,0.992-5.811c1.134-0.936,1.304-0.369,3.005,1.247c1.701,1.616,1.559,2.749,4.989,4.195
	c3.458,1.417,19.332,0.681,19.757-0.822c0.455-1.502-0.055-3.94-4.562-4.933c-4.507-0.992-8.872-1.813-11.735-4.563
	c-0.524-0.491-0.928-0.918-1.256-1.297c-0.226,0.043-0.463,0.071-0.719,0.071c-0.05,0-0.093-0.012-0.142-0.014
	c-0.002,0.059-0.012,0.118-0.016,0.177c-0.007-0.875-0.291-3.056-0.291-5.118l-0.164-11.621h6.753l-3.345-113.357
	c-1.331,0.312-12.159,0.85-30.84-0.823c-0.36-0.032-0.72-0.057-1.081-0.083c0.361,0.026,0.722,0.051,1.082,0.083
	c18.68,1.673,29.509,1.135,30.841,0.822c0.514-0.12,0.311-8.567-0.132-18.9c-0.005-0.001-0.009-0.002-0.013-0.003
	c0-0.001,0,0,0-0.001c0,0.001,0,0,0,0.001c0.004,0.001,0.008,0.002,0.013,0.003c2.66,0.397,5.007,1.219,6.96,2.604
	C217.231,361.867,230.384,349.365,224.573,334.881z M403.073,410.195h-13.408h-1.535l6.326-29.168l-1.503,6.888l1.502-6.888h-10.743
	c0.007-0.006,2.328-2.128,6.235-3.854c3.94-1.758,3.94-5.925,0.51-5.499c-3.43,0.396-9.071,2.892-8.986-0.171
	c0.059-3.091,2.582-3.601,9.158-6.095c6.576-2.494,0.34-7.087-2.495-4.819c-2.835,2.239-8.334,2.495-4.847-1.275
	c3.515-3.741,4.677-9.496,2.409-7.993c-2.239,1.502-5.159,1.246-4.082-5.896c1.105-7.172-3.657-4.848-3.232,0.907
	c0.397,5.754-0.765,4.592-3.515,0c-2.75-4.593-2.835,3.316,0.34,9.325c3.175,6.01-2.665,7.768-5.074,3.26
	c-2.438-4.507-5.584,0.567-0.85,6.066c4.762,5.5,1.587,9.354-0.879,7.087c-2.438-2.239-6.038-0.085-2.353,4.082
	c3.63,4.136,4.716,4.864,4.732,4.875H360.78l5.478,29.168l-58.003,0.001v-6.151h-17.943v-10.119h53.631V330.94H231.946v62.986
	h53.603v10.119h-17.943v6.151h-36.908v101.452l13.38,0.028V485.54h145.587v26.588l13.408,0.028V410.195z M409.451,390.239
	l8.022-3.515l5.499,12.897v-21.373l-6.633,3.373l-2.267-10.997l-9.241,3.118L409.451,390.239z M446.783,410.195h-35.49v101.99
	l24.236,0.086c0,0,4.026,0.227,11.254-1.531V410.195z M451.262,382.189l-9.269-3.118l-2.24,10.998l-6.633-3.373v21.373l5.499-12.869
	l7.994,3.486L451.262,382.189z M133.991,369.182c5.615-0.064,14.193-1.1,23.334-1.166
	C148.184,368.083,139.606,369.119,133.991,369.182z M132.081,321.527L132.081,321.527c0,0-0.005,0.022-0.009,0.028
	C132.076,321.549,132.081,321.527,132.081,321.527z"></path>
<path id="color_x5F_3" fill="#E84393" d="M129.802,368.925c-1.37-0.263-2.213-0.748-2.399-1.562v116.504h5.188h16.328h4.988
	c0,0,3.713-81.467,10.233-81.014c7.002,0.51,9.099,79.682,9.099,79.682h27.666l-3.345-113.357c-1.331,0.312-12.159,0.85-30.84-0.823
	c-0.36-0.032-0.72-0.057-1.081-0.083C150.819,367.166,135.597,370.036,129.802,368.925z"></path>
<path id="color_x5F_2" fill="#FBC02D" d="M438.619,395.2l-5.499,12.869v-21.373l6.633,3.373l2.24-10.998l9.269,3.118l-4.649,16.497
	L438.619,395.2z M422.972,399.621v-21.373l-6.633,3.373l-2.267-10.997l-9.241,3.118l4.62,16.497l8.022-3.515L422.972,399.621z
	 M197.417,350.274c0.004,0.001,0.008,0.002,0.013,0.003c0.443,10.333,0.646,18.78,0.132,18.9
	c-1.332,0.313-12.161,0.851-30.841-0.822c-0.36-0.032-0.721-0.057-1.082-0.083c-14.82-1.106-30.043,1.764-35.837,0.653
	c-1.369-0.263-2.212-0.748-2.398-1.562c-0.802-3.506,2.75-31.302,4.14-41.82c0.01-0.06,0.016-0.132,0.026-0.19
	c0-0.01,0-0.006,0-0.01c0.314-2.373,0.511-3.816,0.511-3.816s-0.028,0.029-0.028,0.085c0,0.058-0.028,0.142-0.028,0.255
	c-0.013,0.079-0.027,0.173-0.04,0.276c-0.004,0.024-0.007,0.046-0.011,0.071c0.002-0.014,0.004-0.033,0.006-0.047
	c-0.101,0.617-0.273,1.608-0.497,2.632c-0.003,0.016-0.007,0.031-0.01,0.047c-0.035,0.158-0.071,0.316-0.108,0.474
	c-0.009,0.04-0.019,0.079-0.029,0.118c-0.034,0.143-0.069,0.286-0.105,0.426c-0.367,1.446-4.335,4.694-10.559,4.67
	c-2.435-0.01-5.216-0.52-8.261-1.836c-0.643-0.278-1.32-0.606-2.02-0.971c-0.095-0.05-0.182-0.099-0.281-0.149
	c-0.209-0.111-0.421-0.228-0.634-0.346c-0.222-0.122-0.445-0.239-0.668-0.377c-0.001,0-0.001-0.001-0.002-0.001
	c-7.173-4.119-16.33-11.634-21.898-16.426c2.009-3.621,15.015-17.049,15.015-17.049c-2.88-1.8-5.333-3.433-5.765-3.721
	c1.115,0.735,15.599,10.256,16.253,9.22c0.652-1.106,5.159-23.67,8.646-31.012c3.231-6.748,8.983-10.514,16.759-9.648
	c0.232,0.026,0.463,0.051,0.7,0.085c0.458,0.066,0.919,0.14,1.391,0.239l0,0c0.184,0.038,0.361,0.096,0.543,0.14
	c5.02,1.211,9.369,4.664,12.113,7.331c-0.273-0.263-0.561-0.534-0.864-0.81c0,0.057-3.997,18.51,13.067,21.232
	c17.121,2.75,14.145-22.648,14.145-22.705c-1.905,2.078-3.103,4.088-3.677,5.167c1.352-2.548,6.187-10.316,15.496-11.686
	c11.169-1.672,14.343,2.154,17.348,12.331c2.977,10.148,0.312,29.169,2.495,31.153c1.885,1.761,3.271,1.331,5.202-0.799
	c0.276-0.304,0.563-0.644,0.865-1.016c1.537-1.895,9.057-6.346,14.405-9.378c0.099,0.114,9.316,10.908,9.01,17.366
	c-5.935,5.544-15.949,14.296-23.411,17.726c-0.051,0.023-0.102,0.045-0.151,0.068c-0.22,0.099-0.432,0.184-0.647,0.274
	c-0.065,0.025-0.138,0.059-0.198,0.079c-0.179,0.078-0.337,0.15-0.512,0.206c-0.079,0.03-0.155,0.053-0.234,0.082
	c-0.139,0.049-0.278,0.099-0.417,0.139c-0.134,0.045-0.259,0.089-0.379,0.134c-0.211,0.064-0.412,0.11-0.616,0.161
	c-0.027,0.005-0.053,0.013-0.082,0.017c-0.161,0.054-0.295,0.08-0.429,0.108c-0.048,0.01-0.092,0.013-0.139,0.022
	c-0.178,0.038-0.347,0.069-0.51,0.069c-0.053,0.014-0.113,0.027-0.169,0.037c-0.009,0.001-0.018,0.003-0.027,0.004
	c-0.054,0.009-0.106,0.016-0.144,0.016c-0.034,0.003-0.062,0.003-0.095,0.005c-0.288,0.022-0.571,0.035-0.839,0.021
	c-9.808-0.511-15.647-13.493-15.647-13.493s0,0.005,0,0.006l-0.001-0.003c0,0,0,0,0,0.057c0,0.028,0,0.085,0,0.142
	c0,0.028,0,0.057,0,0.085c0.027,0.27,0.055,0.753,0.106,1.435c0.019,0.311,0.04,0.661,0.063,1.047c0,0.012,0,0.031,0,0.041
	c0,0.17,0.028,0.369,0.028,0.539c0,0.082,0.01,0.152,0.02,0.227c0.012,0.203,0.025,0.415,0.038,0.633
	c0.055,0.983,0.125,2.099,0.197,3.365v0.028c0.085,1.531,0.17,3.231,0.283,5.046c0,0.028,0,0.028,0,0.057
	c0.075,1.229,0.15,2.507,0.226,3.805c0.211,3.831,0.434,8.012,0.641,12.184c0.042,0.869,0.085,1.739,0.125,2.606
	c0,0.057,0,0.113,0,0.17c0.021,0.388,0.043,0.762,0.065,1.142c0.013,0.268,0.025,0.537,0.038,0.804
	c0.056,1.449,0.13,2.894,0.181,4.291C197.417,350.245,197.417,350.245,197.417,350.274z M184.494,301.856
	c0-2.297-1.871-4.139-4.139-4.139h-33.732c-2.296,0-4.139,1.842-4.139,4.139v38.551c0,2.268,1.843,4.139,4.139,4.139h33.732
	c2.268,0,4.139-1.871,4.139-4.139L184.494,301.856L184.494,301.856z M389.947,377.173c3.94-1.758,3.94-5.925,0.51-5.499
	c-3.43,0.396-9.071,2.892-8.986-0.171c0.059-3.091,2.582-3.601,9.158-6.095s0.34-7.087-2.495-4.819
	c-2.835,2.239-8.334,2.495-4.847-1.275c3.515-3.741,4.677-9.496,2.409-7.993c-2.239,1.502-5.159,1.246-4.082-5.896
	c1.105-7.172-3.657-4.848-3.232,0.907c0.397,5.754-0.765,4.592-3.515,0c-2.75-4.593-2.835,3.316,0.34,9.325
	c3.175,6.01-2.665,7.768-5.074,3.26c-2.438-4.507-5.584,0.567-0.85,6.066c4.762,5.5,1.587,9.354-0.879,7.087
	c-2.438-2.239-6.038-0.085-2.353,4.082c3.631,4.137,4.717,4.865,4.732,4.875h12.929C383.719,381.021,386.04,378.899,389.947,377.173
	z"></path>
<path id="color_x5F_1" fill="#0984E3" d="M157.905,260.611c0,0,1.672,6.092,1.502,8.758v0.001h-3.77c0,0-0.107-0.14-0.31-0.386
	c-0.002-0.002-0.002-0.003-0.004-0.005c-0.004-0.005-0.011-0.012-0.015-0.017c-0.094-0.114-0.209-0.251-0.342-0.405
	c-0.03-0.035-0.064-0.074-0.096-0.11c-0.115-0.133-0.242-0.277-0.381-0.432c-0.072-0.081-0.152-0.167-0.23-0.253
	c-0.107-0.118-0.22-0.24-0.339-0.367c-0.136-0.146-0.282-0.297-0.433-0.454c-0.07-0.073-0.142-0.146-0.215-0.221
	c-0.217-0.222-0.448-0.45-0.691-0.687c-0.004-0.004-0.009-0.009-0.013-0.013c-2.743-2.667-7.096-6.126-12.12-7.337
	c-0.182-0.044-0.359-0.102-0.543-0.14l0,0c-0.454-0.114-0.879-0.17-1.304-0.228c-0.03-0.004-0.057-0.006-0.087-0.011
	c-0.237-0.034-0.468-0.059-0.7-0.085c-0.124-0.014-0.247-0.037-0.375-0.046c0.425-4.452,0.538-7.938,0.453-9.724
	c-0.255-6.095-2.409-9.241-0.907-14.825s4.904-7.937,7.625-10.006h0.001c15.675-1.331,28.969,21.486,28.969,21.486l0,0
	c-0.234,0.52-0.659,1.037-1.098,1.479c-0.734,0.738-1.509,1.27-1.509,1.27s0.368-1.672-1.956-3.231
	c-2.296-1.559-7.115-2.382-13.493-6.945c-4.673-3.341-5.837-6.655-6.15-8.188c0-0.001-0.001-0.003-0.001-0.004
	c-0.028-0.538-0.085-0.879-0.085-0.879s-0.028,0.341,0.085,0.879c0.057,1.39-0.198,4.196-2.806,7.059
	c-3.657,3.997-1.247,14.655,0,17.574C147.813,257.039,152.406,260.441,157.905,260.611z M190.728,257.21
	c11.169-1.672,14.343,2.154,17.348,12.331c2.977,10.148,0.312,29.169,2.495,31.153c1.885,1.761,3.271,1.331,5.202-0.799
	c0.276-0.304,0.563-0.643,0.864-1.015c4.649-14.627,8.76-19.389,4.139-31.635s-15.506-8.136-21.997-20.381
	c-6.492-12.246-1.871-19.248-11.254-29.877c-7.625-8.618-23.356-9.837-33.504-3.602c0,0-0.001,0-0.001,0.001
	c2.343,0.87,4.437,1.944,6.314,3.157c0.041,0.027,0.085,0.051,0.126,0.078c0.375,0.245,0.734,0.499,1.091,0.755
	c0.099,0.071,0.204,0.138,0.302,0.209c0.312,0.228,0.609,0.465,0.908,0.701c0.133,0.105,0.272,0.206,0.402,0.312
	c0.261,0.213,0.508,0.433,0.758,0.651c0.156,0.136,0.318,0.268,0.47,0.405c0.223,0.201,0.432,0.408,0.646,0.613
	c0.167,0.16,0.34,0.317,0.503,0.478c0.19,0.19,0.369,0.384,0.552,0.576c0.174,0.182,0.353,0.362,0.521,0.546
	c0.162,0.177,0.313,0.358,0.469,0.537c0.177,0.203,0.359,0.404,0.53,0.609c0.139,0.166,0.267,0.335,0.402,0.502
	c0.177,0.22,0.357,0.439,0.526,0.661c0.12,0.157,0.231,0.315,0.347,0.473c0.172,0.233,0.347,0.466,0.511,0.7
	c0.104,0.149,0.2,0.298,0.302,0.447c0.165,0.244,0.333,0.487,0.49,0.731c0.09,0.139,0.172,0.278,0.259,0.417
	c0.159,0.253,0.319,0.507,0.469,0.759c0.078,0.131,0.149,0.262,0.225,0.393c0.149,0.259,0.3,0.518,0.441,0.774
	c0.068,0.124,0.13,0.247,0.196,0.371c0.14,0.262,0.281,0.524,0.412,0.783c0.059,0.117,0.113,0.231,0.17,0.348
	c0.13,0.263,0.26,0.525,0.38,0.784c0.052,0.112,0.099,0.221,0.15,0.332c0.119,0.26,0.237,0.52,0.347,0.775
	c0.045,0.105,0.086,0.206,0.13,0.31c0.108,0.255,0.215,0.51,0.315,0.76c0.041,0.104,0.078,0.204,0.118,0.306
	c0.095,0.244,0.191,0.488,0.278,0.726c0.037,0.1,0.07,0.196,0.106,0.296c0.084,0.232,0.167,0.464,0.244,0.688
	c0.034,0.1,0.064,0.194,0.097,0.292c0.072,0.217,0.144,0.433,0.21,0.641c0.03,0.095,0.056,0.185,0.085,0.279
	c0.062,0.202,0.124,0.403,0.18,0.595c0.028,0.096,0.052,0.186,0.079,0.279c0.051,0.179,0.102,0.358,0.147,0.526
	c0.027,0.1,0.05,0.193,0.075,0.289c0.039,0.152,0.08,0.305,0.115,0.447c0.025,0.101,0.046,0.193,0.069,0.289
	c0.03,0.125,0.061,0.252,0.087,0.368c0.024,0.104,0.044,0.198,0.065,0.295c0.021,0.094,0.042,0.192,0.061,0.279
	c0.022,0.106,0.041,0.2,0.06,0.295c0.013,0.063,0.026,0.13,0.037,0.188c0.022,0.113,0.04,0.213,0.057,0.307
	c0.004,0.025,0.01,0.053,0.014,0.077c0.06,0.343,0.087,0.54,0.09,0.561c0,0,0,0,0-0.001c0.7-1.036,1.389-2.01,1.888-2.728
	c0.04-0.058,0.088-0.126,0.125-0.18c0.066-0.092,0.146-0.18,0.231-0.265c1.457-1.448,5.566-1.719,6.289,1.201
	c0.368,1.531-0.092,3.005-1.02,4.252c-0.928,1.247-2.324,2.268-3.827,2.892c-3.005,1.247-5.244,0.17-5.244,0.17
	c-0.765,2.494-5.413,7.992-5.414,7.993l0,0l1.843,15.023h3.997c0,0,0.1-0.226,0.297-0.61c0.024-0.047,0.047-0.092,0.075-0.144
	c0.01-0.019,0.022-0.041,0.032-0.06C176.584,266.349,181.419,258.581,190.728,257.21z M146.084,498.296c0,0-3.317,2.183-9.609,3.686
	c-2.647,0.638-3.76-0.034-4.157-1.032c-0.001-0.002-0.001-0.004-0.002-0.006c-0.043-0.109-0.078-0.221-0.105-0.337
	c-0.015-0.063-0.017-0.13-0.027-0.194c-0.422-0.038-0.81-0.125-1.143-0.279c-0.289,0.317-0.618,0.661-1.03,1.055
	c-2.863,2.75-7.228,3.543-11.735,4.563c-4.507,0.992-4.989,3.431-4.564,4.933c0.425,1.502,16.299,2.239,19.758,0.794
	c3.43-1.418,3.317-2.552,4.989-4.167c1.701-1.645,1.871-2.183,3.005-1.248c1.134,0.936,0.992,5.812,0.992,5.812l4.932-0.142
	c0,0-0.17-10.687,0-11.48C147.587,499.43,146.084,498.296,146.084,498.296z M130.72,331.704c0.028-0.028,0.028-0.085,0.028-0.113
	c0.17-1.446,0.34-2.778,0.51-3.969c0-0.028,0-0.057,0-0.057c0.057-0.397,0.113-0.766,0.142-1.134
	c0.028-0.028,0.028-0.028,0.028-0.057c0.023-0.3,0.07-0.568,0.116-0.831c0.01-0.06,0.016-0.132,0.026-0.19c0-0.01,0-0.006,0-0.01
	c0-0.007,0-0.018,0-0.018c0.028-0.34,0.085-0.652,0.113-0.936c0.028-0.312,0.085-0.596,0.113-0.822c0-0.028,0-0.028,0-0.028
	c0.082-0.55,0.133-0.99,0.177-1.325c0.002-0.014,0.004-0.033,0.006-0.047c-0.101,0.617-0.273,1.608-0.497,2.632
	c-0.003,0.016-0.007,0.031-0.01,0.047c-0.035,0.158-0.071,0.316-0.108,0.474c-0.009,0.04-0.019,0.079-0.029,0.118
	c-0.034,0.143-0.069,0.286-0.105,0.426c-0.367,1.446-4.335,4.694-10.559,4.67c-2.436-0.009-5.217-0.52-8.263-1.836
	c-0.369-0.17-0.737-0.34-1.134-0.51c-0.057-0.029-0.142-0.086-0.227-0.113c-0.213-0.117-0.435-0.232-0.657-0.348
	c-0.095-0.05-0.182-0.099-0.281-0.149c-0.009-0.005-0.017-0.009-0.026-0.014c-0.057-0.028-0.113-0.057-0.17-0.085
	c-0.146-0.078-0.292-0.167-0.438-0.247c-0.222-0.122-0.445-0.239-0.668-0.377c-0.001,0-0.001-0.001-0.002-0.001
	c-0.027-0.002-0.055-0.027-0.055-0.027c-0.425-0.227-0.85-0.481-1.276-0.736c-2.381,4.365-3.912,8.844-3.912,13.946
	c0,11.65,9.184,21.571,23.783,23.159C127.744,355.94,129.473,341.54,130.72,331.704z M247.109,182.375
	c0.824-0.51,1.93-0.992,3.318-1.502c1.417-0.482,2.891-0.737,4.45-0.737l0,0c1.757,0,3.203,0.396,4.309,1.219
	c1.105,0.794,1.672,2.013,1.672,3.656c0,1.247-0.227,2.269-0.709,3.09c-0.454,0.794-1.106,1.588-1.956,2.325
	c-0.68,0.651-1.587,1.304-2.693,1.927c-1.077,0.652-2.098,1.247-3.061,1.786v6.633h3.912v-4.904c1.191-0.68,2.296-1.389,3.373-2.098
	c1.049-0.736,1.984-1.502,2.806-2.352c0.822-0.852,1.502-1.814,1.984-2.949c0.51-1.105,0.765-2.352,0.765-3.798
	c0-2.466-0.907-4.479-2.693-5.981c-1.814-1.502-4.28-2.268-7.398-2.268l0,0c-1.389,0-2.863,0.142-4.422,0.454
	c-1.559,0.312-2.835,0.68-3.855,1.077v4.422L247.109,182.375L247.109,182.375z M208.475,504.9
	c-4.507-0.992-8.872-1.813-11.735-4.563c-0.524-0.491-0.928-0.918-1.256-1.297c-0.226,0.043-0.463,0.071-0.719,0.071
	c-0.05,0-0.093-0.012-0.142-0.014c-0.038,1.206-0.606,2.395-2.782,2.295c-0.221-0.01-0.46-0.034-0.715-0.072
	s-0.529-0.091-0.822-0.16c-6.321-1.503-9.638-3.685-9.638-3.685s-1.502,1.105-1.304,1.927c0.17,0.822,0,11.509,0,11.509l4.932,0.113
	c0,0-0.142-4.875,0.992-5.811s1.304-0.369,3.005,1.247s1.559,2.749,4.989,4.195c3.458,1.417,19.332,0.681,19.757-0.822
	C213.492,508.331,212.982,505.893,208.475,504.9z M252.27,209.475h4.422v-4.593h-4.422L252.27,209.475L252.27,209.475z
	 M392.953,387.915l1.502-6.888H360.78l1.304,6.888H392.953z M389.665,410.195h13.408v101.961l-13.408-0.028V485.54H244.078v26.136
	l-13.38-0.028V410.196h36.908v-6.151h17.943v-10.119h-53.603V330.94h111.997v62.986h-53.631v10.119h17.943v6.151L389.665,410.195
	L389.665,410.195z M340.598,391.686v-58.479H235.262v58.479H340.598z M389.665,423.604H244.078v55.247h145.587V423.604z
	 M315.426,454.274h-66.671v10.006h66.671V454.274z M446.783,410.195V510.74c-7.228,1.758-11.254,1.531-11.254,1.531l-24.236-0.086
	v-101.99H446.783z M442.616,434.063H415.46v4.168h27.156V434.063z M442.616,427.203H415.46v4.167h27.156V427.203z M442.616,420.314
	H415.46v4.168h27.156V420.314z M315.426,442.766h-66.671v10.006h66.671V442.766z M235.404,181.354
	c1.105,0.794,1.672,2.013,1.672,3.656c0,0,0,0,0,0.001c0,1.247-0.255,2.268-0.709,3.089c-0.453,0.794-1.105,1.588-1.956,2.325
	c-0.709,0.651-1.587,1.304-2.693,1.927c-1.105,0.652-2.098,1.247-3.061,1.786v6.633h3.912v-4.904
	c1.191-0.68,2.296-1.389,3.373-2.098c1.049-0.736,1.984-1.502,2.806-2.352c0.822-0.852,1.474-1.814,1.984-2.949
	c0.51-1.105,0.765-2.352,0.765-3.797l0,0c0-2.466-0.907-4.479-2.693-5.981c-1.814-1.502-4.28-2.268-7.398-2.268
	c-1.389,0-2.863,0.142-4.422,0.454c-1.559,0.312-2.863,0.68-3.855,1.077v4.422h0.198c0.822-0.51,1.927-0.992,3.317-1.502
	c1.417-0.482,2.891-0.737,4.45-0.737C232.853,180.136,234.298,180.532,235.404,181.354z M219.303,323.229
	c-0.255,0.142-0.51,0.283-0.794,0.425c-0.142,0.085-0.312,0.171-0.453,0.255c-0.227,0.114-0.454,0.228-0.68,0.341
	c-0.198,0.085-0.369,0.17-0.539,0.255c-0.071,0.027-0.129,0.058-0.195,0.089c-0.051,0.023-0.102,0.045-0.151,0.068
	c-0.091,0.044-0.189,0.088-0.278,0.126c-0.129,0.056-0.248,0.1-0.369,0.148c-0.065,0.025-0.138,0.059-0.198,0.079
	c-0.179,0.078-0.337,0.15-0.512,0.206c-0.019,0.006-0.036,0.017-0.055,0.022c-0.059,0.025-0.119,0.038-0.178,0.059
	c-0.139,0.049-0.278,0.099-0.417,0.139c-0.134,0.045-0.259,0.089-0.379,0.134c-0.033,0.012-0.073,0.024-0.103,0.036
	c-0.195,0.049-0.349,0.094-0.513,0.125c-0.027,0.005-0.053,0.013-0.082,0.017c-0.161,0.054-0.295,0.08-0.429,0.108
	c-0.008,0.002-0.017,0.005-0.025,0.006c-0.041,0.01-0.074,0.007-0.114,0.015c-0.178,0.038-0.347,0.069-0.51,0.069
	c-0.053,0.014-0.113,0.027-0.169,0.037c-0.01,0.002-0.017,0.003-0.027,0.004c-0.054,0.009-0.106,0.016-0.144,0.016
	c-0.034,0.003-0.062,0.003-0.095,0.005c-0.297,0.021-0.56,0.024-0.84,0.024c-9.784-0.51-15.617-13.426-15.646-13.49l-0.001-0.003
	c0,0,0,0,0,0.057v0.227c0.027,0.27,0.055,0.753,0.106,1.435c0.003,0.033,0.004,0.061,0.007,0.095c0,0.143,0,0.284,0.028,0.426
	c0,0.142,0,0.312,0.028,0.453v0.113c0,0.17,0.028,0.369,0.028,0.539c0,0.082,0.01,0.152,0.02,0.227c0.004,0.028,0,0.054,0.008,0.085
	c0.009,0.175,0.02,0.363,0.03,0.547c0.055,0.983,0.125,2.099,0.197,3.365v0.028c0.085,1.531,0.17,3.231,0.283,5.046
	c0,0.028,0,0.028,0,0.057c0.075,1.229,0.15,2.507,0.226,3.805c0.01,0.169,0.02,0.334,0.029,0.504
	c0.209,3.701,0.418,7.688,0.612,11.68c0.042,0.869,0.085,1.739,0.125,2.606v0.17c0.021,0.388,0.043,0.762,0.065,1.142
	c0.007,0.12,0.014,0.239,0.02,0.361c0,0,0,0,0,0.028c0.005,0.139,0.012,0.276,0.017,0.414c0.056,1.449,0.13,2.894,0.181,4.291
	c0,0,0,0,0,0.029c0.004,0.001,0.008,0.002,0.013,0.003c2.66,0.397,5.007,1.219,6.96,2.604c12.841,8.986,25.994-3.516,20.183-18
	C222.761,330.4,220.891,326.687,219.303,323.229z M232.909,204.882h-4.45v4.593h4.45V204.882z M309.898,341.087l-21.94,16.696
	l-21.742-16.98l-2.58,3.289l20.891,16.299l0,0l-21.09,16.044l2.523,3.316l21.969-16.696l21.742,16.951l2.551-3.26l0,0
	l-20.863-16.299l21.061-16.044L309.898,341.087z M131.981,322.167c0.001-0.009,0.002-0.015,0.004-0.024
	c0.014-0.103,0.028-0.197,0.04-0.276c0-0.113,0.028-0.197,0.028-0.255c0-0.056,0.028-0.085,0.028-0.085s-0.003,0.021-0.008,0.056
	c-0.003,0.021-0.008,0.052-0.013,0.085c-0.007,0.049-0.017,0.108-0.028,0.18c-0.007,0.047-0.015,0.097-0.024,0.152
	C131.999,322.054,131.991,322.105,131.981,322.167z M175.96,241.353c0,0.001,0.001,0.01,0.001,0.01l-0.028,0.03
	C175.942,241.379,175.951,241.366,175.96,241.353L175.96,241.353z"></path>
</svg>